<?xml version="1.0" encoding="UTF-8" standalone="no"?>
<svg
   xmlns:dc="http://purl.org/dc/elements/1.1/"
   xmlns:cc="http://creativecommons.org/ns#"
   xmlns:rdf="http://www.w3.org/1999/02/22-rdf-syntax-ns#"
   xmlns:svg="http://www.w3.org/2000/svg"
   xmlns="http://www.w3.org/2000/svg"
   viewBox="0 0 606.02667 604.35999"
   height="604.35999"
   width="606.02667"
   xml:space="preserve"
   id="svg2"
   version="1.1"><metadata
     id="metadata8"><rdf:RDF><cc:Work
         rdf:about=""><dc:format>image/svg+xml</dc:format><dc:type
           rdf:resource="http://purl.org/dc/dcmitype/StillImage" /></cc:Work></rdf:RDF></metadata><defs
     id="defs6" /><g
     transform="matrix(1.3333333,0,0,-1.3333333,0,604.36)"
     id="g10"><g
       transform="scale(0.1)"
       id="g12"><path
         id="path14"
         style="fill:#fafaf9;fill-opacity:1;fill-rule:nonzero;stroke:none"
         d="M 1005.62,2079.73 859.656,1394.87 3.01563,1577.45 148.98,2262.31 1005.62,2079.73" /><path
         id="path16"
         style="fill:#dadbd8;fill-opacity:1;fill-rule:nonzero;stroke:none"
         d="m 1005.62,2079.73 c 0,0 -1.46,0.23 -4.18,0.77 -2.838,0.56 -6.831,1.37 -12.049,2.43 -10.7,2.21 -26.309,5.45 -46.598,9.65 -40.754,8.54 -100.18,21 -175.5,36.79 -150.527,31.8 -364.465,77 -618.785,130.72 l 2.695,1.75 C 107.832,2057.98 58.1172,1824.29 5.51563,1576.99 l -0.01954,-0.07 -1.94921,3.01 C 320.652,1512.19 615.344,1449.23 860.094,1396.94 l -2.504,-1.63 c 44.398,206.13 81.195,376.99 106.933,496.48 12.973,59.75 23.153,106.62 30.122,138.72 3.5,15.92 6.195,28.16 8.045,36.57 1.84,8.29 2.93,12.65 2.93,12.65 0,0 -0.72,-4.12 -2.39,-12.3 -1.72,-8.35 -4.218,-20.49 -7.484,-36.29 -6.703,-32.04 -16.48,-78.83 -28.957,-138.47 -25.289,-119.92 -61.445,-291.38 -105.07,-498.24 l -0.434,-2.06 -2.07,0.44 C 614.414,1444.86 319.66,1507.53 2.48828,1574.97 L 0,1575.5 l 0.527344,2.49 0.015625,0.06 C 53.3398,1825.3 103.234,2058.96 146.754,2262.79 l 0.48,2.22 2.219,-0.48 c 254.723,-54.77 468.992,-100.83 619.75,-133.24 75,-16.25 134.172,-29.08 174.754,-37.86 20.043,-4.4 35.469,-7.78 46.043,-10.1 5.09,-1.14 8.98,-2.01 11.75,-2.64 2.62,-0.59 3.87,-0.96 3.87,-0.96" /><path
         id="path18"
         style="fill:#e7e8e5;fill-opacity:1;fill-rule:nonzero;stroke:none"
         d="M 41.7344,1614.28 838.191,1444.52 965.781,2043.15 169.324,2212.91 41.7344,1614.28" /><path
         id="path20"
         style="fill:#dadbd8;fill-opacity:1;fill-rule:nonzero;stroke:none"
         d="M 41.7344,1614.28 399.227,1927.09 521.926,1657.56 665.328,1757.1 838.191,1444.52 41.7344,1614.28" /><path
         id="path22"
         style="fill:#dadbd8;fill-opacity:1;fill-rule:nonzero;stroke:none"
         d="m 654.41,1920.35 c -7.383,-34.63 -41.445,-56.73 -76.078,-49.35 -34.633,7.39 -56.73,41.45 -49.348,76.08 7.383,34.64 41.442,56.73 76.082,49.34 34.633,-7.37 56.723,-41.43 49.344,-76.07" /><path
         id="path24"
         style="fill:#fafaf9;fill-opacity:1;fill-rule:nonzero;stroke:none"
         d="m 4470.53,1316.76 71.72,-896.74 -1121.67,-89.711 -71.71,896.741 1121.66,89.71" /><path
         id="path26"
         style="fill:#dadbd8;fill-opacity:1;fill-rule:nonzero;stroke:none"
         d="m 4470.53,1316.76 c 0,0 -1.87,-0.27 -5.42,-0.61 -3.71,-0.33 -8.91,-0.8 -15.73,-1.43 -13.98,-1.19 -34.38,-2.94 -60.91,-5.21 -53.31,-4.44 -131.04,-10.93 -229.57,-19.14 -196.99,-16.11 -476.97,-39.01 -809.8,-66.23 l 2.68,3.14 c 21.45,-266.889 46.03,-572.858 72.05,-896.62 v -0.09 l -3.5,2.989 c 415.27,33.011 801.19,63.683 1121.71,89.16 l -2.49,-2.918 c -21.01,270.07 -38.43,493.929 -50.62,650.489 -5.95,78.31 -10.63,139.76 -13.84,181.83 -1.53,20.9 -2.71,36.94 -3.52,47.98 -0.77,10.88 -1.04,16.66 -1.04,16.66 0,0 0.63,-5.35 1.59,-16.03 0.94,-10.91 2.31,-26.77 4.1,-47.42 3.51,-41.91 8.64,-103.11 15.18,-181.1 12.89,-156.929 31.32,-381.288 53.56,-651.98 l 0.22,-2.699 -2.71,-0.222 c -320.49,-25.789 -706.38,-56.84 -1121.62,-90.25 l -3.26,-0.27 -0.26,3.262 v 0.09 c -25.77,323.781 -50.13,629.757 -71.38,896.669 l -0.22,2.92 2.91,0.23 c 333.7,26.08 614.4,48.03 811.91,63.47 98.3,7.53 175.85,13.46 229.05,17.54 26.29,1.95 46.52,3.45 60.39,4.48 6.68,0.47 11.79,0.82 15.43,1.06 3.44,0.23 5.11,0.25 5.11,0.25" /><path
         id="path28"
         style="fill:#e7e8e5;fill-opacity:1;fill-rule:nonzero;stroke:none"
         d="m 3454.74,389.852 1042.86,83.41 -62.68,783.838 -1042.86,-83.41 62.68,-783.838" /><path
         id="path30"
         style="fill:#dadbd8;fill-opacity:1;fill-rule:nonzero;stroke:none"
         d="m 3454.74,389.852 325.28,516.359 250.01,-286.789 140.01,175.207 327.56,-321.367 -1042.86,-83.41" /><path
         id="path32"
         style="fill:#dadbd8;fill-opacity:1;fill-rule:nonzero;stroke:none"
         d="m 4096.66,991.602 c 3.63,-45.352 -30.2,-85.051 -75.55,-88.68 -45.35,-3.633 -85.05,30.187 -88.68,75.539 -3.62,45.359 30.19,85.049 75.55,88.689 45.35,3.62 85.05,-30.2 88.68,-75.548" /><path
         id="path34"
         style="fill:#dadbd8;fill-opacity:1;fill-rule:nonzero;stroke:none"
         d="m 864.18,3042.74 59.539,-154.28 -323.965,-39.69 191.309,-174.71 -212.766,-179.22 273.258,-40.51 -31.446,-252.75 177.246,121.68 -136.097,-47.03 41.746,225.64 -208.16,28.35 167.363,147.49 -138.012,144.7 257.399,42.53 -117.414,177.8" /><path
         id="path36"
         style="fill:#dadbd8;fill-opacity:1;fill-rule:nonzero;stroke:none"
         d="m 633.242,840.32 c -0.058,0.059 -0.109,0.961 -0.168,2.692 -0.051,1.968 -0.109,4.457 -0.183,7.558 -0.102,6.95 -0.239,16.641 -0.418,29.059 -0.227,25.492 -0.551,62.133 -0.957,108.332 l 1.726,-1.731 c -127.426,-0.261 -330.07,-0.671 -558.0389,-1.109 1.2578,1.258 -2.8672,-2.851 2.8125,2.84 v -0.039 -0.082 -0.149 -0.293 -0.597 -1.192 -2.367 -4.75 -9.461 C 78.0078,962.73 78.0078,956.449 78.0078,950.191 78.0039,937.68 78,925.262 78,912.941 77.9805,888.301 77.9648,864.059 77.9492,840.32 l -2.7773,2.782 c 158.9181,-0.5 297.9651,-0.942 397.6991,-1.27 49.68,-0.332 89.543,-0.602 117.391,-0.793 13.543,-0.148 24.148,-0.269 31.734,-0.359 3.422,-0.078 6.156,-0.141 8.309,-0.18 1.89,-0.059 2.879,-0.121 2.937,-0.18 0.067,-0.058 -0.808,-0.121 -2.582,-0.191 -2.066,-0.027 -4.683,-0.09 -7.957,-0.168 -7.453,-0.09 -17.859,-0.211 -31.148,-0.359 -27.692,-0.192 -67.34,-0.461 -116.742,-0.793 -100.223,-0.329 -239.954,-0.77 -399.6411,-1.27 l -2.7813,-0.008 v 2.789 c -0.0156,23.739 -0.0312,47.981 -0.0508,72.621 -0.0039,12.321 -0.0039,24.739 -0.0078,37.25 0,6.258 0,12.539 -0.0078,18.84 v 9.461 4.75 2.367 1.192 0.597 0.293 0.149 0.082 0.039 c 5.6914,5.68 1.5977,1.57 2.8789,2.84 227.9689,-0.449 430.6169,-0.86 558.0389,-1.11 h 1.75 l -0.015,-1.73 c -0.411,-46.641 -0.731,-83.629 -0.957,-109.359 -0.18,-12.25 -0.321,-21.813 -0.418,-28.672 -0.075,-2.981 -0.137,-5.371 -0.184,-7.27 -0.059,-1.609 -0.117,-2.398 -0.176,-2.34" /><path
         id="path38"
         style="fill:#dadbd8;fill-opacity:1;fill-rule:nonzero;stroke:none"
         d="m 708.914,987.961 c -0.074,0.07 -0.144,1.019 -0.215,2.809 -0.058,2.121 -0.133,4.691 -0.222,7.82 -0.125,7.27 -0.297,17.14 -0.508,29.6 -0.266,25.89 -0.641,62.44 -1.102,107.4 l 2.047,-2.04 c -86.871,-0.2 -205.047,-0.49 -335.289,-0.8 -2.555,-2.54 3.434,3.47 2.82,2.83 v -0.04 -0.07 -0.16 -0.3 -0.61 -1.21 l -0.004,-2.43 v -4.84 -9.65 c -0.003,-6.42 -0.003,-12.81 -0.007,-19.15 -0.008,-12.69 -0.016,-25.23 -0.028,-37.58 -0.035,-24.69 -0.066,-48.64 -0.101,-71.579 l -2.703,2.699 c 96.8,-0.519 180.136,-0.961 239.863,-1.281 29.457,-0.32 53.07,-0.57 69.871,-0.75 7.848,-0.137 14.098,-0.25 18.844,-0.34 4.316,-0.109 6.621,-0.23 6.734,-0.328 0.109,-0.121 -1.973,-0.231 -6.086,-0.332 -4.609,-0.09 -10.668,-0.199 -18.281,-0.348 -16.66,-0.172 -40.059,-0.429 -69.258,-0.742 -60.18,-0.32 -144.148,-0.769 -241.687,-1.289 l -2.707,-0.02 -0.004,2.731 c -0.032,22.939 -0.063,46.889 -0.098,71.579 -0.012,12.35 -0.02,24.89 -0.031,37.58 0,6.34 -0.004,12.73 -0.004,19.15 v 9.65 4.84 2.43 1.21 0.61 0.3 0.16 0.07 0.04 c -0.625,-0.6 5.394,5.4 2.867,2.86 130.242,-0.32 248.418,-0.59 335.289,-0.81 h 2.063 l -0.024,-2.04 c -0.457,-45.47 -0.836,-82.46 -1.098,-108.64 -0.214,-12.27 -0.386,-21.99 -0.507,-29.149 -0.157,-6.602 -0.293,-9.992 -0.434,-9.84" /><path
         id="path40"
         style="fill:#dadbd8;fill-opacity:1;fill-rule:nonzero;stroke:none"
         d="m 4144.8,1784.18 c -0.05,0.06 -0.11,0.97 -0.17,2.68 -0.04,1.98 -0.1,4.47 -0.18,7.58 -0.1,6.94 -0.24,16.63 -0.42,29.05 -0.22,25.49 -0.55,62.13 -0.96,108.32 l 1.73,-1.72 c -127.42,-0.26 -330.07,-0.66 -558.04,-1.12 0.45,0.45 0.22,0.23 -0.01,0 -0.42,-0.41 -0.84,-0.82 2.83,2.84 v -0.03 -0.07 -0.15 -0.3 -0.6 -1.18 -2.38 -4.74 -9.47 c 0,-6.3 0,-12.58 -0.01,-18.83 0,-12.52 0,-24.94 -0.01,-37.25 -0.02,-24.65 -0.03,-48.89 -0.05,-72.62 l -2.77,2.77 c 158.91,-0.51 297.96,-0.95 397.69,-1.26 49.68,-0.34 89.54,-0.6 117.39,-0.79 13.55,-0.16 24.15,-0.28 31.74,-0.37 3.42,-0.07 6.15,-0.13 8.3,-0.18 1.9,-0.06 2.88,-0.11 2.94,-0.18 0.07,-0.06 -0.81,-0.12 -2.58,-0.18 -2.06,-0.05 -4.68,-0.11 -7.96,-0.17 -7.45,-0.09 -17.86,-0.22 -31.14,-0.37 -27.69,-0.19 -67.34,-0.46 -116.75,-0.8 -100.22,-0.31 -239.95,-0.76 -399.63,-1.26 l -2.79,-0.01 v 2.8 c -0.02,23.73 -0.03,47.97 -0.05,72.62 0,12.31 -0.01,24.73 -0.01,37.25 0,6.25 0,12.53 -0.01,18.83 v 9.47 4.74 2.38 1.18 0.6 0.3 0.15 0.07 0.03 c 3.68,3.68 3.28,3.27 2.87,2.86 -0.22,-0.23 -0.44,-0.45 0.01,0 227.97,-0.46 430.62,-0.86 558.04,-1.12 l 1.75,-0.01 -0.01,-1.73 c -0.41,-46.63 -0.73,-83.62 -0.96,-109.35 -0.18,-12.25 -0.32,-21.81 -0.42,-28.66 -0.08,-2.99 -0.13,-5.37 -0.18,-7.28 -0.06,-1.61 -0.12,-2.39 -0.18,-2.34" /><path
         id="path42"
         style="fill:#dadbd8;fill-opacity:1;fill-rule:nonzero;stroke:none"
         d="m 4303.82,1635.76 c -0.06,0.06 -0.12,0.97 -0.18,2.69 -0.05,1.97 -0.11,4.46 -0.19,7.56 -0.09,6.96 -0.23,16.64 -0.42,29.07 -0.22,25.47 -0.54,62.13 -0.95,108.32 l 1.73,-1.73 c -127.43,-0.26 -330.07,-0.66 -558.04,-1.12 1.26,1.27 -2.87,-2.83 2.81,2.85 v -0.04 -0.07 -0.16 -0.29 -0.6 -1.18 -2.38 -4.75 -9.46 c 0,-6.3 0,-12.58 0,-18.83 -0.01,-12.52 -0.01,-24.94 -0.02,-37.26 -0.01,-24.64 -0.03,-48.88 -0.05,-72.62 l -2.77,2.78 c 158.91,-0.5 297.97,-0.94 397.69,-1.26 49.68,-0.34 89.55,-0.6 117.4,-0.8 13.54,-0.15 24.15,-0.27 31.74,-0.36 3.41,-0.08 6.15,-0.14 8.3,-0.17 1.89,-0.07 2.88,-0.13 2.95,-0.19 0.05,-0.06 -0.83,-0.12 -2.59,-0.18 -2.06,-0.04 -4.69,-0.1 -7.96,-0.18 -7.45,-0.08 -17.85,-0.21 -31.14,-0.36 -27.7,-0.19 -67.35,-0.46 -116.75,-0.79 -100.23,-0.32 -239.95,-0.77 -399.64,-1.27 l -2.78,-0.01 v 2.79 c -0.02,23.74 -0.03,47.98 -0.05,72.62 0,12.32 -0.01,24.74 -0.01,37.26 0,6.25 0,12.53 0,18.83 l -0.01,9.46 v 4.75 2.38 1.18 0.6 0.29 0.16 0.07 0.04 c 5.69,5.69 1.6,1.58 2.88,2.84 227.97,-0.45 430.61,-0.86 558.04,-1.11 h 1.74 l -0.01,-1.73 c -0.41,-46.63 -0.73,-83.63 -0.95,-109.36 -0.19,-12.25 -0.33,-21.81 -0.42,-28.66 -0.08,-2.99 -0.14,-5.37 -0.19,-7.28 -0.06,-1.61 -0.11,-2.4 -0.16,-2.34" /><path
         id="path44"
         style="fill:#dadbd8;fill-opacity:1;fill-rule:nonzero;stroke:none"
         d="m 2765.48,4233.6 c -0.06,0.06 -0.12,0.96 -0.18,2.69 -0.05,1.98 -0.11,4.46 -0.19,7.57 -0.09,6.94 -0.23,16.63 -0.42,29.05 -0.22,25.49 -0.54,62.13 -0.95,108.33 l 1.73,-1.73 c -127.43,-0.25 -330.07,-0.65 -558.04,-1.11 1.26,1.27 -2.87,-2.84 2.81,2.84 v -0.04 -0.07 -0.15 -0.3 -0.59 -1.19 -2.38 -4.74 -9.47 c 0,-6.29 0,-12.58 0,-18.83 -0.01,-12.52 -0.01,-24.94 -0.02,-37.26 -0.01,-24.64 -0.03,-48.87 -0.04,-72.61 l -2.79,2.78 c 158.92,-0.51 297.98,-0.95 397.7,-1.27 49.68,-0.33 89.55,-0.6 117.4,-0.79 13.54,-0.16 24.15,-0.28 31.74,-0.37 3.41,-0.07 6.15,-0.13 8.3,-0.18 1.89,-0.06 2.88,-0.12 2.95,-0.18 0.05,-0.06 -0.83,-0.12 -2.59,-0.18 -2.06,-0.04 -4.69,-0.1 -7.96,-0.17 -7.45,-0.09 -17.86,-0.21 -31.14,-0.37 -27.7,-0.18 -67.35,-0.46 -116.75,-0.79 -100.23,-0.32 -239.95,-0.76 -399.65,-1.27 l -2.77,-0.01 v 2.8 c -0.02,23.74 -0.04,47.97 -0.05,72.61 -0.01,12.32 -0.01,24.74 -0.01,37.26 0,6.25 -0.01,12.54 -0.01,18.83 v 9.47 4.74 2.38 1.19 0.59 0.3 0.15 0.07 0.04 c 5.69,5.69 1.6,1.58 2.88,2.85 227.97,-0.46 430.61,-0.86 558.04,-1.12 h 1.74 l -0.01,-1.73 c -0.41,-46.64 -0.73,-83.62 -0.95,-109.36 -0.19,-12.25 -0.33,-21.81 -0.42,-28.66 -0.08,-2.99 -0.14,-5.38 -0.19,-7.27 -0.06,-1.61 -0.12,-2.4 -0.16,-2.35" /><path
         id="path46"
         style="fill:#dadbd8;fill-opacity:1;fill-rule:nonzero;stroke:none"
         d="m 3015.7,4381.94 c -0.06,0.05 -0.12,0.96 -0.18,2.68 -0.04,1.97 -0.1,4.46 -0.17,7.57 -0.11,6.95 -0.25,16.64 -0.43,29.05 -0.22,25.49 -0.55,62.13 -0.95,108.33 l 1.73,-1.73 c -127.43,-0.25 -330.08,-0.65 -558.05,-1.11 1.26,1.27 -2.86,-2.84 2.82,2.84 v -0.03 -0.08 -0.15 -0.3 -0.59 -1.19 -2.37 -4.75 -9.47 c 0,-6.3 0,-12.57 0,-18.83 -0.01,-12.51 -0.01,-24.93 -0.02,-37.26 -0.01,-24.64 -0.03,-48.87 -0.04,-72.61 l -2.79,2.77 c 158.92,-0.5 297.97,-0.94 397.71,-1.26 49.68,-0.34 89.54,-0.61 117.38,-0.79 13.55,-0.16 24.15,-0.28 31.74,-0.37 3.42,-0.07 6.15,-0.13 8.3,-0.18 1.9,-0.06 2.89,-0.11 2.95,-0.17 0.06,-0.06 -0.82,-0.12 -2.59,-0.18 -2.06,-0.05 -4.68,-0.11 -7.96,-0.19 -7.45,-0.08 -17.85,-0.2 -31.14,-0.36 -27.69,-0.19 -67.34,-0.46 -116.75,-0.79 -100.22,-0.32 -239.95,-0.76 -399.64,-1.27 l -2.78,-0.01 v 2.8 c -0.02,23.74 -0.03,47.97 -0.05,72.61 0,12.33 -0.01,24.75 -0.01,37.26 0,6.26 0,12.53 0,18.83 v 9.47 4.75 2.37 1.19 0.59 0.3 0.15 0.08 0.03 c 5.69,5.69 1.59,1.57 2.87,2.84 227.97,-0.45 430.62,-0.86 558.05,-1.11 h 1.74 l -0.01,-1.73 c -0.41,-46.64 -0.73,-83.62 -0.96,-109.36 -0.17,-12.25 -0.32,-21.81 -0.42,-28.66 -0.08,-2.98 -0.14,-5.37 -0.18,-7.27 -0.06,-1.61 -0.11,-2.4 -0.17,-2.34" /><path
         id="path48"
         style="fill:#17282f;fill-opacity:1;fill-rule:nonzero;stroke:none"
         d="m 4397.67,7.98047 c 0,-1.44141 -957.03,-2.60938 -2137.32,-2.60938 -1180.71,0 -2137.537,1.16797 -2137.537,2.60938 0,1.42969 956.827,2.60153 2137.537,2.60153 1180.29,0 2137.32,-1.17184 2137.32,-2.60153" /><path
         id="path50"
         style="fill:#ffffff;fill-opacity:1;fill-rule:nonzero;stroke:none"
         d="m 4166.22,2711.2 148.88,-726.2 -908.36,-186.23 -148.87,726.2 908.35,186.23" /><path
         id="path52"
         style="fill:#17282f;fill-opacity:1;fill-rule:nonzero;stroke:none"
         d="m 4166.22,2711.2 c 0,0 -1.51,-0.41 -4.38,-1.04 -2.99,-0.64 -7.2,-1.56 -12.71,-2.75 -11.32,-2.38 -27.83,-5.87 -49.3,-10.4 -43.15,-8.99 -106.07,-22.11 -185.83,-38.75 -159.49,-32.99 -386.17,-79.89 -655.65,-135.64 l 1.87,2.84 c 44.4,-216.13 95.29,-463.9 149.14,-726.08 l 0.02,-0.07 -3.17,2.09 c 336.32,68.78 648.86,132.7 908.45,185.79 l -1.74,-2.64 c -44.37,218.76 -81.14,400.1 -106.85,526.92 -12.75,63.45 -22.76,113.24 -29.62,147.32 -3.36,16.94 -5.94,29.94 -7.71,38.89 -1.72,8.83 -2.52,13.52 -2.52,13.52 0,0 1.05,-4.31 2.91,-12.96 1.86,-8.82 4.59,-21.65 8.12,-38.36 7.09,-33.92 17.45,-83.46 30.65,-146.6 26.32,-127.04 63.97,-308.69 109.39,-527.83 l 0.45,-2.2 -2.19,-0.45 c -259.53,-53.33 -572.01,-117.56 -908.26,-186.66 l -2.64,-0.55 -0.54,2.64 -0.01,0.08 c -53.65,262.22 -104.36,510.02 -148.6,726.18 l -0.47,2.36 2.35,0.48 c 270.3,54.91 497.67,101.11 657.66,133.6 79.64,16.05 142.47,28.71 185.56,37.39 21.31,4.24 37.71,7.51 48.95,9.74 5.42,1.05 9.56,1.86 12.51,2.43 2.79,0.52 4.16,0.71 4.16,0.71" /><path
         id="path54"
         style="fill:#33535f;fill-opacity:1;fill-rule:nonzero;stroke:none"
         d="m 3428.69,1850.91 844.54,173.14 -130.14,634.77 -844.54,-173.14 130.14,-634.77" /><path
         id="path56"
         style="fill:#263f48;fill-opacity:1;fill-rule:nonzero;stroke:none"
         d="m 3428.69,1850.91 214.08,455.04 233.34,-209.4 96.87,157.37 300.25,-229.87 -844.54,-173.14" /><path
         id="path58"
         style="fill:#263f48;fill-opacity:1;fill-rule:nonzero;stroke:none"
         d="m 3826.59,2326.12 c -31.57,0 -59.84,22.13 -66.44,54.26 -7.52,36.73 16.15,72.6 52.87,80.13 4.6,0.94 9.19,1.4 13.71,1.4 31.56,0 59.83,-22.13 66.42,-54.26 7.53,-36.73 -16.13,-72.6 -52.86,-80.14 -4.6,-0.94 -9.19,-1.39 -13.7,-1.39" /><path
         id="path60"
         style="fill:#fafaf9;fill-opacity:1;fill-rule:nonzero;stroke:none"
         d="M 1538.6,4202.82 1436.5,3232.51 222.809,3360.23 324.926,4330.54 1538.6,4202.82" /><path
         id="path62"
         style="fill:#17282f;fill-opacity:1;fill-rule:nonzero;stroke:none"
         d="m 1538.6,4202.82 c 0,0 -2.05,0.09 -5.9,0.43 -4.02,0.39 -9.66,0.92 -17.05,1.62 -15.15,1.51 -37.25,3.7 -65.98,6.56 -57.72,5.88 -141.88,14.45 -248.55,25.31 -213.233,22.05 -516.276,53.39 -876.53,90.65 l 3.476,2.81 C 297.789,4041.39 263.074,3710.31 226.34,3359.96 l -0.012,-0.1 -3.144,3.89 C 672.48,3316.24 1090.03,3272.1 1436.8,3235.43 l -3.23,-2.61 c 31.38,292.1 57.38,534.23 75.57,703.57 9.25,84.68 16.5,151.11 21.46,196.61 2.52,22.59 4.46,39.93 5.79,51.85 1.35,11.76 2.21,17.97 2.21,17.97 0,0 -0.39,-5.82 -1.5,-17.41 -1.17,-11.81 -2.86,-29 -5.07,-51.37 -4.6,-45.37 -11.32,-111.64 -19.88,-196.1 -17.5,-169.87 -42.53,-412.74 -72.72,-705.74 l -0.31,-2.92 -2.93,0.3 c -346.81,36.33 -764.401,80.07 -1213.749,127.13 l -3.519,0.37 0.371,3.52 0.012,0.11 c 36.996,350.31 71.965,681.37 102.465,970.16 l 0.335,3.15 3.153,-0.34 c 360.953,-38.63 664.586,-71.14 878.222,-94.01 106.31,-11.54 190.16,-20.65 247.68,-26.9 28.42,-3.16 50.29,-5.59 65.28,-7.25 7.21,-0.84 12.74,-1.48 16.66,-1.94 3.72,-0.45 5.5,-0.76 5.5,-0.76" /><path
         id="path64"
         style="fill:#f2575d;fill-opacity:1;fill-rule:nonzero;stroke:none"
         d="M 271.082,3416.91 1399.5,3298.16 1488.75,4146.3 360.332,4265.05 271.082,3416.91" /><path
         id="path66"
         style="fill:#ee4947;fill-opacity:1;fill-rule:nonzero;stroke:none"
         d="M 1342.41,3304.17 271.082,3416.91 720.688,3902.63 930.117,3547.1 1114.26,3706 1369.32,3341.31 c -5.58,-4.17 -10.53,-8.72 -14.63,-13.77 -6.24,-7.67 -10.1,-15.47 -12.28,-23.37" /><path
         id="path68"
         style="fill:#ee4947;fill-opacity:1;fill-rule:nonzero;stroke:none"
         d="m 986.516,3850.61 c -3.125,0 -6.278,0.17 -9.453,0.5 -49.071,5.18 -84.665,49.13 -79.497,98.21 4.829,45.89 43.594,79.99 88.735,79.99 3.129,0 6.281,-0.16 9.461,-0.5 49.078,-5.16 84.668,-49.12 79.498,-98.2 -4.83,-45.89 -43.6,-80 -88.744,-80" /><path
         id="path70"
         style="fill:#fafaf9;fill-opacity:1;fill-rule:nonzero;stroke:none"
         d="m 1252.86,861.43 70.48,-605.918 -757.91,-88.16 -70.473,605.929 757.903,88.149" /><path
         id="path72"
         style="fill:#17282f;fill-opacity:1;fill-rule:nonzero;stroke:none"
         d="m 1252.86,861.43 c 0,0 -1.27,-0.219 -3.66,-0.539 -2.5,-0.321 -6.02,-0.762 -10.62,-1.352 -9.45,-1.148 -23.24,-2.828 -41.15,-5.019 -36.02,-4.321 -88.54,-10.61 -155.1,-18.571 -133.103,-15.73 -322.271,-38.078 -547.146,-64.64 l 1.738,2.191 C 517.969,593.16 542.09,386.43 567.621,167.672 l 0.008,-0.063 -2.453,1.942 c 280.605,32.5 541.374,62.691 757.954,87.781 l -1.62,-2.043 c -20.82,182.5 -38.09,333.77 -50.17,439.57 -5.95,52.93 -10.62,94.45 -13.81,122.883 -1.55,14.117 -2.74,24.969 -3.56,32.418 -0.79,7.371 -1.11,11.27 -1.11,11.27 0,0 0.55,-3.61 1.46,-10.828 0.91,-7.36 2.22,-18.071 3.94,-32.032 3.4,-28.308 8.37,-69.66 14.71,-122.351 12.56,-106.028 30.53,-257.617 52.2,-440.5 l 0.21,-1.817 -1.83,-0.222 C 1107,228.391 846.262,197.93 565.691,165.152 l -2.199,-0.261 -0.258,2.211 -0.004,0.058 c -25.367,218.781 -49.332,425.531 -70.242,605.891 l -0.226,1.969 1.965,0.222 c 225.496,25.817 415.179,47.539 548.643,62.809 66.43,7.508 118.84,13.418 154.78,17.488 17.77,1.961 31.44,3.473 40.82,4.512 4.51,0.48 7.97,0.84 10.43,1.09 2.33,0.23 3.46,0.289 3.46,0.289" /><path
         id="path74"
         style="fill:#33535f;fill-opacity:1;fill-rule:nonzero;stroke:none"
         d="M 587.125,208.531 1291.78,290.5 1230.18,820.141 525.52,738.172 587.125,208.531" /><path
         id="path76"
         style="fill:#263f48;fill-opacity:1;fill-rule:nonzero;stroke:none"
         d="M 587.125,208.531 794.953,566.379 971.367,378.129 1061.96,500.281 1291.78,290.5 587.125,208.531" /><path
         id="path78"
         style="fill:#263f48;fill-opacity:1;fill-rule:nonzero;stroke:none"
         d="m 951.887,569.648 c -27.965,0 -52.106,20.961 -55.414,49.411 -3.567,30.64 18.382,58.371 49.027,61.933 2.191,0.258 4.367,0.379 6.523,0.379 27.965,0 52.107,-20.961 55.417,-49.402 3.56,-30.637 -18.389,-58.379 -49.03,-61.938 -2.191,-0.261 -4.371,-0.383 -6.523,-0.383" /><path
         id="path80"
         style="fill:#ffffff;fill-opacity:1;fill-rule:nonzero;stroke:none"
         d="m 3887.66,3866.08 -121.95,268.67 -156.86,-248.67 -266.12,164.27 56.46,-335.32 -258.15,-77.44 263.13,-199.22 -233.14,-282.93 334.08,121.35 176.8,-284.51 134.55,261.52 316.6,-67.09 -127.83,268.37 267.62,130.02 -245.09,83.51 128.69,257.18 -268.79,-59.71" /><path
         id="path82"
         style="fill:#17282f;fill-opacity:1;fill-rule:nonzero;stroke:none"
         d="m 3887.66,3866.08 c 0,0 6.09,1.52 17.8,4.22 11.78,2.68 29.14,6.64 51.87,11.81 45.56,10.28 112.58,25.39 198.87,44.84 l 2.44,0.55 -1.12,-2.24 c -35.18,-70.59 -78.53,-157.56 -128.29,-257.39 l -0.93,2.3 c 73.41,-24.92 156.17,-53.02 245.17,-83.24 l 4.46,-1.51 -4.24,-2.06 c -82.11,-39.98 -172.25,-83.86 -267.51,-130.24 l 1.01,2.89 c 40.73,-85.35 83.5,-175.02 127.99,-268.29 l 2.05,-4.3 -4.66,0.99 c -100.79,21.31 -207.01,43.77 -316.62,66.95 l 2.73,1.29 c -42.75,-83.12 -88.13,-171.37 -134.48,-261.54 l -2.07,-4.02 -2.4,3.85 c -56.56,91 -116.16,186.87 -176.82,284.47 l 3.09,-1.07 c -28.84,-10.47 -59.9,-21.76 -91.11,-33.1 -82.09,-29.81 -163.18,-59.26 -242.98,-88.23 l -8.92,-3.24 6.04,7.32 c 79.76,96.75 157.65,191.23 233.19,282.88 l 0.43,-3.6 c -90.57,68.62 -178.41,135.17 -263.05,199.3 l -3.77,2.87 4.53,1.35 c 89.24,26.72 175.38,52.52 258.17,77.31 l -1.57,-2.54 c -19.94,118.95 -38.74,231.12 -56.21,335.35 l -0.73,4.38 3.77,-2.34 c 97.84,-60.53 186.32,-115.28 265.94,-164.54 l -2.3,-0.53 c 61.94,97.85 114.05,180.17 157.25,248.42 l 1.21,1.91 0.93,-2.05 c 39.31,-87.31 69.54,-154.45 89.99,-199.86 10.16,-22.7 17.88,-39.95 23.11,-51.63 5.17,-11.62 7.74,-17.69 7.74,-17.69 0,0 -2.76,5.68 -8.05,17.13 -5.33,11.57 -13.2,28.67 -23.55,51.17 -20.78,45.41 -51.5,112.55 -91.45,199.87 l 2.13,-0.14 c -42.99,-68.4 -94.84,-150.88 -156.47,-248.92 l -0.88,-1.41 -1.42,0.88 c -79.73,49.09 -168.33,103.65 -266.29,163.98 l 3.03,2.04 c 17.62,-104.21 36.59,-216.35 56.7,-335.27 l 0.33,-1.97 -1.91,-0.58 c -82.76,-24.87 -168.89,-50.76 -258.1,-77.57 l 0.77,4.21 c 84.68,-64.07 172.57,-130.56 263.19,-199.12 l 2.09,-1.58 -1.67,-2.03 c -75.52,-91.68 -153.37,-186.2 -233.09,-282.98 l -2.88,4.08 c 79.8,28.99 160.88,58.45 242.97,88.27 31.21,11.33 62.28,22.61 91.11,33.09 l 2,0.72 1.11,-1.79 c 60.64,-97.62 120.22,-193.5 176.76,-284.52 l -4.45,-0.18 c 46.4,90.15 91.83,178.37 134.61,261.47 l 0.87,1.69 1.86,-0.39 c 109.59,-23.27 215.8,-45.82 316.56,-67.22 l -2.61,-3.31 c -44.38,93.32 -87.05,183.04 -127.67,268.44 l -0.93,1.96 1.94,0.94 c 95.35,46.22 185.55,89.96 267.73,129.8 l 0.22,-3.57 c -88.93,30.41 -171.63,58.69 -244.99,83.78 l -1.79,0.61 0.85,1.69 c 50.07,99.66 93.7,186.49 129.1,256.97 l 1.33,-1.69 c -86.67,-18.96 -153.99,-33.69 -199.74,-43.7 -22.7,-4.91 -40.02,-8.66 -51.79,-11.22 -11.64,-2.49 -17.53,-3.63 -17.53,-3.63" /><path
         id="path84"
         style="fill:#f2575d;fill-opacity:1;fill-rule:nonzero;stroke:none"
         d="m 3765.66,3710.62 -12.9,-215.61 c -1.05,-17.63 -15.09,-31.71 -32.71,-32.82 -18.6,-1.18 -34.84,12.43 -36.96,30.94 l -24.68,216.57 c -1.87,16.4 11.06,30.73 27.56,30.56 l 52.58,-0.55 c 15.69,-0.17 28.05,-13.43 27.11,-29.09" /><path
         id="path86"
         style="fill:#f2575d;fill-opacity:1;fill-rule:nonzero;stroke:none"
         d="m 3663.33,3340.74 c 9.25,-27.55 39.08,-42.38 66.63,-33.12 27.54,9.25 42.37,39.08 33.12,66.62 -9.25,27.55 -39.08,42.37 -66.63,33.13 -27.54,-9.26 -42.37,-39.09 -33.12,-66.63" /><path
         id="path88"
         style="fill:#17282f;fill-opacity:1;fill-rule:nonzero;stroke:none"
         d="m 2639.76,3745.45 c 119.76,2.07 233.6,-182.75 222.11,-289.89 -5.58,-52.05 -24.05,-112.26 17.55,-148.95 41.18,-36.32 122.92,-29.77 162.36,-67.33 0,0 50.53,-48.38 49.23,-113.86 -1.31,-65.49 13.79,-151.92 64.04,-173.09 l -237.31,-102.35 c -26.67,25.93 -39.2,68.01 -65.87,93.94 30.36,-27.08 64.17,-126.72 -65.09,-143.36 l -85.29,72.46 c -217.34,-69.41 -444.97,-153.95 -627.59,-59.04" /><path
         id="path90"
         style="fill:#17282f;fill-opacity:1;fill-rule:nonzero;stroke:none"
         d="m 1518.35,3128.13 c 14.52,49.83 40.11,96.4 49.33,147.48 19.81,109.79 -37.23,230.84 12.52,330.7 35.42,71.07 114.56,107.85 189.66,133.64 75.1,25.78 147.26,42.41 202.04,99.89 40.18,42.16 61.98,99.15 102.02,141.44 57.06,60.27 143.41,82.84 226.05,90.57 84.85,7.94 173.02,2.58 250.7,-32.5 77.67,-35.08 143.43,-103.51 159.74,-187.17 7.96,-40.77 4.3,-83.91 18.48,-122.97 15.6,-42.95 50.77,-75.62 73.09,-115.51 47.15,-84.27 26.78,-200.42 -46.25,-263.6 l -559.62,-772.67 c -121.14,-50.24 -263.3,99.73 -360.97,187.26 -97.67,87.53 -353.51,237.53 -316.79,363.44" /><path
         id="path92"
         style="fill:#f9a78d;fill-opacity:1;fill-rule:nonzero;stroke:none"
         d="m 2737.24,3445.39 c -29.54,170.42 -166.19,368.56 -335.2,331.82 l -519.17,-193.2 c -51.35,-11.16 -76.98,-53.97 -45.76,-40.76 l 168.32,-1237.54 363.22,-246.33 210.01,309.26 c -10.12,104.07 -14.08,178.42 -14.08,178.42 0,0 216.78,40.86 230.99,331.84 7.08,144.71 -25.52,377.16 -58.33,566.49" /><path
         id="path94"
         style="fill:#17282f;fill-opacity:1;fill-rule:nonzero;stroke:none"
         d="m 2658.65,3186.44 c 2.8,-19.29 -11.23,-37.58 -31.34,-40.87 -20.06,-3.28 -38.61,9.64 -41.41,28.94 -2.8,19.3 11.23,37.6 31.27,40.89 20.11,3.29 38.69,-9.66 41.48,-28.96" /><path
         id="path96"
         style="fill:#17282f;fill-opacity:1;fill-rule:nonzero;stroke:none"
         d="m 2709.97,3312.57 c -3.77,-6.87 -38.7,13.67 -81.32,6.07 -42.72,-6.89 -69.19,-37.87 -74.96,-32.61 -2.79,2.28 0.17,14 11.61,27.91 11.24,13.82 32.01,29 58.6,33.53 26.59,4.49 51.11,-2.96 66.15,-12.33 15.33,-9.38 21.83,-19.46 19.92,-22.57" /><path
         id="path98"
         style="fill:#17282f;fill-opacity:1;fill-rule:nonzero;stroke:none"
         d="m 2327.03,3155.32 c -4.86,-6.35 -39.31,17 -85.3,13.56 -46.04,-2.72 -77.85,-30.52 -83.31,-24.84 -2.65,2.5 1.85,13.66 15.72,26.19 13.59,12.48 37.41,25.35 66.11,27.3 28.68,1.88 53.68,-7.69 68.47,-18.26 15.03,-10.62 20.69,-21.09 18.31,-23.95" /><path
         id="path100"
         style="fill:#17282f;fill-opacity:1;fill-rule:nonzero;stroke:none"
         d="m 2487.87,2991.74 c -0.42,2.22 23.65,9.14 62.86,18.56 9.96,2.14 19.28,5.18 20.23,12.25 1.59,7.55 -3.81,17.94 -9.99,29.14 -12.14,23.35 -24.84,47.84 -38.18,73.5 -53.31,104.76 -93.09,191.36 -88.85,193.46 4.24,2.11 50.9,-81.09 104.21,-185.85 12.9,-25.86 25.24,-50.51 36.98,-74.1 5.07,-11.04 13.04,-23.32 9.54,-38.99 -1.89,-7.83 -8.69,-14.11 -14.96,-16.55 -6.25,-2.67 -11.91,-3.4 -16.86,-4.25 -39.78,-6.51 -64.58,-9.4 -64.98,-7.17" /><path
         id="path102"
         style="fill:#f57f62;fill-opacity:1;fill-rule:nonzero;stroke:none"
         d="m 2566.11,2546 c 0,0 -191.07,-33.41 -394.22,60.39 0,0 115.26,-203.2 398.61,-145.21 l -4.39,84.82" /><path
         id="path104"
         style="fill:#17282f;fill-opacity:1;fill-rule:nonzero;stroke:none"
         d="m 2311.25,3391.44 c -2.72,-11.16 -42.69,-10.37 -88.38,-21.01 -45.93,-9.71 -81.79,-27.35 -88.99,-18.39 -3.24,4.31 2.17,15.11 16.14,27.15 13.83,12.01 36.63,24.48 64.1,30.61 27.47,6.07 53.4,4.43 71.02,-0.58 17.75,-5.01 27.23,-12.51 26.11,-17.78" /><path
         id="path106"
         style="fill:#17282f;fill-opacity:1;fill-rule:nonzero;stroke:none"
         d="m 2690.54,3454.79 c -6.95,-9.83 -39.04,-3.92 -76.46,-7.56 -37.52,-2.49 -68.36,-13.56 -76.67,-4.98 -3.69,4.21 0.32,13.73 13.22,23.73 12.71,9.95 34.74,19.36 60.5,21.47 25.75,2.08 48.89,-3.61 62.89,-11.37 14.21,-7.78 19.55,-16.53 16.52,-21.29" /><path
         id="path108"
         style="fill:#17282f;fill-opacity:1;fill-rule:nonzero;stroke:none"
         d="m 1345.87,3174.57 c 24.64,51.44 -30.46,104.69 8.82,152.97 35.83,44.04 135.72,50.53 169.19,95.26 26.15,34.93 26.88,43.83 26.23,75.32 -0.81,39.45 8.71,205.88 248.61,251.58 l 41.05,-148.74 c 14.72,7.82 30.07,14.73 45.22,21.14 193.09,81.74 395.96,140.37 602.9,174.25 27.24,-41.83 5.16,-100.66 -32.89,-132.96 -38.06,-32.31 -87.85,-46.17 -134.03,-65.14 -46.17,-18.99 -93.22,-47.44 -111,-94.08 -18.9,-49.62 0.23,-107.04 -16.16,-157.53 -28.19,-86.89 -147.18,-118.42 -174.89,-205.46 -20.94,-65.83 18.97,-133.93 30.58,-202.03 13.17,-77.17 -12.92,-160.03 -67.91,-215.74 -43.38,-43.94 -14.95,-132.5 -14.95,-132.5 l -774.97,396.17 c -41.67,88.91 120.47,117.08 154.2,187.49" /><path
         id="path110"
         style="fill:#f57f62;fill-opacity:1;fill-rule:nonzero;stroke:none"
         d="m 2476.61,2914.62 c -39.4,8.28 -88.91,20.59 -128.29,28.88 -16.28,-32.75 -9.18,-75.57 16.8,-101.31 25.99,-25.73 68.88,-32.43 101.47,-15.83" /><path
         id="path112"
         style="fill:#17282f;fill-opacity:1;fill-rule:nonzero;stroke:none"
         d="m 2466.59,2826.36 c 0.29,-0.55 -3.67,-3.8 -12.22,-7.29 -8.51,-3.26 -21.92,-6.58 -38.58,-4.97 -16.47,1.5 -36.53,7.99 -53.2,23.38 -16.59,15.27 -27.82,39.27 -28.54,65.17 -0.47,15.46 2.98,30.54 9.36,43.28 l 1.92,3.83 4.11,-0.91 c 37.8,-8.35 70.59,-16.05 93.86,-21.99 23.26,-5.94 37.01,-10.11 36.74,-11.41 -0.27,-1.29 -14.53,0.5 -38.19,4.55 -23.66,4.06 -56.75,10.38 -94.66,18.14 l 6.03,2.92 c -5.37,-11.18 -8.32,-24.41 -7.9,-38.08 0.64,-22.96 10.3,-44.26 24.45,-58 14.22,-13.89 31.98,-20.64 46.99,-22.97 15.18,-2.46 27.85,-0.59 36.31,1.25 8.49,2.05 13.1,3.93 13.52,3.1" /><path
         id="path114"
         style="fill:#f2575d;fill-opacity:1;fill-rule:nonzero;stroke:none"
         d="m 1614.1,2255.99 377.63,120.32 c 61.62,-106.88 151.26,-168.24 289.08,-167.13 146.1,1.16 227.65,66.47 298.81,179.49 l 71.66,-12.36 474.81,-88.27 64.07,-800.59 L 3045.48,682.82 3281.19,0 H 1540.38 l 104.3,746.77 -202.78,1452.86 172.2,56.36" /><path
         id="path116"
         style="fill:#f2575d;fill-opacity:1;fill-rule:nonzero;stroke:none"
         d="m 1473.52,2189.64 -31.62,9.99 c 0,0 -181.36,-79.21 -322.05,-435.85 C 991.895,1439.45 991.895,1439.45 991.895,1439.45 l 463.505,-361.03 170.18,494.11 -152.06,617.11" /><path
         id="path118"
         style="fill:#17282f;fill-opacity:1;fill-rule:nonzero;stroke:none"
         d="m 2651.28,2376.31 c 0.18,-0.06 -0.73,-2.94 -2.63,-8.41 -1.76,-5.51 -4.99,-13.43 -9.47,-23.53 -9.11,-20.11 -25.02,-48.46 -51.24,-79.38 -26.41,-30.58 -63.71,-63.55 -113.04,-89.21 -49.02,-25.91 -110.33,-42.76 -175.7,-45.09 -65.42,-1.99 -127.92,10.77 -178.87,33.39 -51.23,22.34 -91.05,52.77 -119.8,81.53 -28.6,29.1 -46.71,56.33 -57.37,75.78 -5.27,9.78 -9.13,17.47 -11.3,22.86 -2.34,5.31 -3.47,8.14 -3.29,8.2 0.18,0.07 1.67,-2.62 4.33,-7.79 2.51,-5.24 6.66,-12.75 12.2,-22.33 11.2,-19.07 29.69,-45.76 58.36,-74.26 28.84,-28.15 68.45,-57.91 119.1,-79.7 50.35,-22.06 111.94,-34.49 176.43,-32.54 64.44,2.3 124.88,18.76 173.35,44.08 48.78,25.08 85.94,57.36 112.48,87.35 26.35,30.31 42.69,58.16 52.34,77.9 4.77,9.93 8.32,17.7 10.41,23.09 2.25,5.33 3.52,8.12 3.71,8.06" /><path
         id="path120"
         style="fill:#17282f;fill-opacity:1;fill-rule:nonzero;stroke:none"
         d="m 1473.72,1828.33 c -0.87,-1.18 -55.54,30.87 -122.1,71.57 -66.58,40.72 -119.84,74.68 -118.97,75.86 0.87,1.18 55.53,-30.86 122.11,-71.58 66.56,-40.71 119.83,-74.67 118.96,-75.85" /><path
         id="path122"
         style="fill:#ffffff;fill-opacity:1;fill-rule:nonzero;stroke:none"
         d="m 3027.15,1981.85 c 0.02,-1.44 -386.12,-10.91 -862.37,-21.17 -476.41,-10.25 -862.52,-17.4 -862.55,-15.97 -0.04,1.44 386.02,10.92 862.44,21.18 476.24,10.25 862.44,17.4 862.48,15.96" /><path
         id="path124"
         style="fill:#ffffff;fill-opacity:1;fill-rule:nonzero;stroke:none"
         d="m 1530.37,1351.38 c -0.11,-0.15 -1.75,0.98 -4.75,3.25 -3.42,2.66 -7.71,6.01 -12.98,10.11 -11.69,9.42 -27.64,22.27 -47.12,37.96 -40.14,32.63 -94.66,76.93 -154.89,125.87 -60.05,49.21 -114.39,93.74 -154.4,126.53 -19.18,16.04 -34.91,29.19 -46.42,38.81 -5.05,4.37 -9.17,7.92 -12.46,10.77 -2.81,2.5 -4.23,3.88 -4.12,4.03 0.11,0.14 1.75,-0.97 4.77,-3.21 3.44,-2.63 7.76,-5.94 13.07,-9.99 11.76,-9.31 27.84,-22.02 47.45,-37.52 40.27,-32.49 94.95,-76.61 155.4,-125.37 60.56,-49.11 115.06,-93.95 153.95,-127.08 19.04,-16.22 34.64,-29.51 46.06,-39.23 5.02,-4.42 9.1,-8.01 12.36,-10.87 2.79,-2.53 4.19,-3.93 4.08,-4.06" /><path
         id="path126"
         style="fill:#ffffff;fill-opacity:1;fill-rule:nonzero;stroke:none"
         d="m 3063.42,1560.69 c 0,-0.1 -1.32,-0.22 -3.91,-0.39 -2.85,-0.15 -6.66,-0.34 -11.52,-0.59 -10.41,-0.42 -25.27,-1.02 -44.27,-1.79 -38.74,-1.24 -94.32,-3.02 -162.87,-5.21 -137.54,-3.9 -327.59,-8 -537.53,-10.16 -210.01,-2.13 -400.12,-1.91 -537.71,-0.81 -68.59,0.79 -124.18,1.42 -162.94,1.87 -19.01,0.38 -33.87,0.68 -44.29,0.89 -4.86,0.16 -8.68,0.27 -11.52,0.36 -2.6,0.11 -3.92,0.22 -3.92,0.3 0,0.09 1.33,0.17 3.92,0.24 2.85,0.03 6.67,0.09 11.53,0.14 10.42,0.03 25.28,0.06 44.3,0.1 38.76,-0.06 94.35,-0.12 162.93,-0.22 137.59,-0.16 327.67,0.21 537.65,2.33 209.9,2.17 399.93,5.69 537.49,8.64 68.56,1.5 124.15,2.71 162.9,3.55 19.01,0.35 33.89,0.62 44.31,0.82 4.86,0.03 8.67,0.06 11.52,0.08 2.6,-0.01 3.92,-0.06 3.93,-0.15" /><path
         id="path128"
         style="fill:#ffffff;fill-opacity:1;fill-rule:nonzero;stroke:none"
         d="m 3058.3,1092.28 c 0,-1.44 -326.41,-2.6 -728.95,-2.6 -402.69,0 -729.02,1.16 -729.02,2.6 0,1.44 326.33,2.6 729.02,2.6 402.54,0 728.95,-1.16 728.95,-2.6" /><path
         id="path130"
         style="fill:#ffffff;fill-opacity:1;fill-rule:nonzero;stroke:none"
         d="m 3021.72,679.449 c 0,-1.429 -308.86,-2.609 -689.76,-2.609 -381.04,0 -689.82,1.18 -689.82,2.609 0,1.442 308.78,2.61 689.82,2.61 380.9,0 689.76,-1.168 689.76,-2.61" /><path
         id="path132"
         style="fill:#ffffff;fill-opacity:1;fill-rule:nonzero;stroke:none"
         d="m 3204.62,214.359 c 0,-1.429 -362.67,-2.597 -809.95,-2.597 -447.43,0 -810.02,1.168 -810.02,2.597 0,1.442 362.59,2.61 810.02,2.61 447.28,0 809.95,-1.168 809.95,-2.61" /><path
         id="path134"
         style="fill:#f9a78d;fill-opacity:1;fill-rule:nonzero;stroke:none"
         d="m 1187.61,1131.95 c 60.81,178.99 112.36,500.68 158.05,687.23" /><path
         id="path136"
         style="fill:#f57f62;fill-opacity:1;fill-rule:nonzero;stroke:none"
         d="m 1345.66,1819.18 c 0.18,-0.04 -0.22,-2.49 -1.14,-7.1 -1.08,-5.1 -2.49,-11.78 -4.25,-20.11 -3.81,-18.05 -9.1,-43.16 -15.59,-73.94 -12.78,-63.08 -30.25,-149.24 -49.54,-244.44 -19.8,-95.41 -39.44,-181.47 -56.47,-243.05 -8.33,-30.84 -15.98,-55.56 -21.61,-72.5 -2.8,-8.05 -5.04,-14.51 -6.76,-19.44 -1.6,-4.41 -2.52,-6.71 -2.69,-6.65 -0.17,0.06 0.42,2.46 1.7,6.98 1.47,5 3.41,11.56 5.81,19.71 5.04,17.11 12.13,41.92 19.99,72.83 16.1,61.73 35.14,147.82 54.94,243.18 19.7,95.36 37.12,181.81 51.03,244.14 6.87,31.18 12.84,56.33 17.21,73.64 2.16,8.24 3.89,14.84 5.21,19.89 1.25,4.54 1.98,6.9 2.16,6.86" /><path
         id="path138"
         style="fill:#cc4341;fill-opacity:1;fill-rule:nonzero;stroke:none"
         d="m 1555.48,1369.01 c -86.11,174.48 -71.98,308.05 -64.29,475.03 0,0 45.5,-315.01 64.29,-475.03" /><path
         id="path140"
         style="fill:#17282f;fill-opacity:1;fill-rule:nonzero;stroke:none"
         d="m 2756.78,542.02 c 0,-0.18 -2.73,-0.301 -7.93,-0.391 -5.68,-0.02 -13.25,-0.059 -22.73,-0.098 -19.75,-0.031 -48.31,0.438 -83.59,1.508 -70.58,2.09 -168.03,7.41 -275.25,18.133 -107.25,10.808 -203.83,24.969 -273.41,36.949 -34.79,5.981 -62.88,11.18 -82.22,15.149 -9.28,1.921 -16.69,3.46 -22.25,4.621 -5.08,1.109 -7.73,1.781 -7.69,1.949 0.02,0.18 2.74,-0.141 7.88,-0.93 5.61,-0.898 13.07,-2.121 22.43,-3.648 20,-3.282 48.04,-7.871 82.45,-13.5 69.68,-11.043 166.21,-24.614 273.33,-35.403 107.09,-10.718 204.38,-16.617 274.86,-19.64 34.85,-1.321 63.24,-2.399 83.5,-3.16 9.47,-0.368 17.03,-0.661 22.7,-0.879 5.2,-0.258 7.92,-0.469 7.92,-0.66" /><path
         id="path142"
         style="fill:#17282f;fill-opacity:1;fill-rule:nonzero;stroke:none"
         d="m 2426.22,449.691 c 0.07,-1.449 -77.7,-6.461 -173.67,-11.211 -96.02,-4.738 -173.88,-7.429 -173.95,-5.988 -0.07,1.43 77.68,6.438 173.69,11.199 95.97,4.75 173.85,7.418 173.93,6" /><path
         id="path144"
         style="fill:#17282f;fill-opacity:1;fill-rule:nonzero;stroke:none"
         d="m 1467.52,1972.82 c 0.08,0.01 0.33,-1.04 0.71,-3.12 0.41,-2.37 0.94,-5.42 1.61,-9.26 1.34,-8.49 3.23,-20.43 5.64,-35.65 4.73,-31.34 11.48,-76.1 19.8,-131.26 16.27,-111.2 38.66,-264.26 63.39,-433.34 24.15,-169.21 46.01,-322.36 61.89,-433.62 7.63,-55.261 13.83,-100.101 18.16,-131.488 2,-15.281 3.57,-27.262 4.68,-35.793 0.45,-3.859 0.81,-6.937 1.09,-9.32 0.21,-2.11 0.28,-3.188 0.19,-3.199 -0.09,-0.008 -0.33,1.039 -0.72,3.121 -0.41,2.359 -0.94,5.41 -1.6,9.25 -1.34,8.488 -3.23,20.441 -5.64,35.648 -4.73,31.34 -11.48,76.102 -19.8,131.25 -16.27,111.201 -38.66,264.281 -63.4,433.401 -24.14,169.16 -46,322.3 -61.88,433.56 -7.63,55.26 -13.83,100.09 -18.17,131.49 -1.99,15.27 -3.56,27.27 -4.67,35.8 -0.45,3.87 -0.82,6.94 -1.09,9.33 -0.22,2.1 -0.28,3.18 -0.19,3.2" /><path
         id="path146"
         style="fill:#cc4341;fill-opacity:1;fill-rule:nonzero;stroke:none"
         d="m 2620.92,837.531 c -45.5,0 -82.64,8.469 -128.75,30.309 -67.63,32.019 -127.15,103.781 -141.22,160.73 l 94.74,61.14 c 235.58,0.13 433.49,0.67 536.39,1.41 -23.75,-35.05 -50.44,-69.05 -80.95,-101.472 -69.38,-73.718 -142.79,-142.656 -243.71,-150.566 -12.89,-1.012 -24.96,-1.551 -36.5,-1.551" /><path
         id="path148"
         style="fill:#a7a9a8;fill-opacity:1;fill-rule:nonzero;stroke:none"
         d="m 3186.42,1534.15 -2.55,31.94 23.51,15.17 c -7.19,-15.38 -14.15,-31.1 -20.96,-47.11" /><path
         id="path150"
         style="fill:#cc4341;fill-opacity:1;fill-rule:nonzero;stroke:none"
         d="m 2983.64,1093.43 c -101.3,0.73 -296.72,1.27 -529.99,1.41 l 730.22,471.25 2.55,-31.94 c -58.82,-138.34 -106.64,-297.94 -202.78,-440.72" /><path
         id="path152"
         style="fill:#a7a9a8;fill-opacity:1;fill-rule:nonzero;stroke:none"
         d="m 2445.69,1089.71 7.96,5.13 c 233.27,-0.14 428.69,-0.68 529.99,-1.41 -0.51,-0.76 -1.04,-1.55 -1.56,-2.31 -102.9,-0.74 -300.81,-1.28 -536.39,-1.41" /><path
         id="path154"
         style="fill:#f9a78d;fill-opacity:1;fill-rule:nonzero;stroke:none"
         d="m 718.836,1277.16 c 0,0 -69.41,-300.23 204.324,-357 87.62,-18.168 164.77,-4 226.32,20.11 74.97,29.359 154.06,107.07 203.13,170.9 l 21.24,28.43 -144.34,129.77 241.66,1186.71 -218.97,111.72 c 0,0 -234.96,-475.54 -296.153,-636.15 -96.137,-252.33 -195.234,-444 -237.211,-654.49" /><path
         id="path156"
         style="fill:#33535f;fill-opacity:1;fill-rule:nonzero;stroke:none"
         d="m 1698,3170.52 h -152.63 v 33.29 c 0,8.19 6.65,14.85 14.85,14.85 h 122.93 c 8.2,0 14.85,-6.66 14.85,-14.85 v -33.29" /><path
         id="path158"
         style="fill:#33535f;fill-opacity:1;fill-rule:nonzero;stroke:none"
         d="m 1718.46,3170.52 h -235.5 l -9.11,-557.4 h 843.56 v 557.4 h -598.95" /><path
         id="path160"
         style="fill:#17282f;fill-opacity:1;fill-rule:nonzero;stroke:none"
         d="m 2302.18,3035.49 c 0,-1.44 -185.81,-2.61 -414.97,-2.61 -229.23,0 -415.01,1.17 -415.01,2.61 0,1.43 185.78,2.6 415.01,2.6 229.16,0 414.97,-1.17 414.97,-2.6" /><path
         id="path162"
         style="fill:#17282f;fill-opacity:1;fill-rule:nonzero;stroke:none"
         d="m 2312.95,3170.52 c 0,-1.44 -185.82,-2.6 -414.97,-2.6 -229.24,0 -415.02,1.16 -415.02,2.6 0,1.44 185.78,2.6 415.02,2.6 229.15,0 414.97,-1.16 414.97,-2.6" /><path
         id="path164"
         style="fill:#dadbd8;fill-opacity:1;fill-rule:nonzero;stroke:none"
         d="m 2097.42,2832.88 c 0,-101.23 -82.07,-183.3 -183.3,-183.3 -101.24,0 -183.3,82.07 -183.3,183.3 0,101.24 82.06,183.31 183.3,183.31 101.23,0 183.3,-82.07 183.3,-183.31" /><path
         id="path166"
         style="fill:#17282f;fill-opacity:1;fill-rule:nonzero;stroke:none"
         d="m 1914.12,3011.19 c -98.32,0 -178.3,-79.99 -178.3,-178.31 0,-98.31 79.98,-178.3 178.3,-178.3 98.32,0 178.3,79.99 178.3,178.3 0,98.32 -79.98,178.31 -178.3,178.31 m 0,-366.61 c -103.83,0 -188.3,84.48 -188.3,188.3 0,103.84 84.47,188.31 188.3,188.31 103.83,0 188.3,-84.47 188.3,-188.31 0,-103.82 -84.47,-188.3 -188.3,-188.3" /><path
         id="path168"
         style="fill:#17282f;fill-opacity:1;fill-rule:nonzero;stroke:none"
         d="m 2074.59,2832.88 c 0,-88.62 -71.84,-160.47 -160.47,-160.47 -88.63,0 -160.48,71.85 -160.48,160.47 0,88.63 71.85,160.48 160.48,160.48 88.63,0 160.47,-71.85 160.47,-160.48" /><path
         id="path170"
         style="fill:#0f191d;fill-opacity:1;fill-rule:nonzero;stroke:none"
         d="m 1914.12,2738.69 c -52.02,0 -94.2,42.17 -94.2,94.19 0,52.03 42.18,94.2 94.2,94.2 52.02,0 94.19,-42.17 94.19,-94.2 0,-52.02 -42.17,-94.19 -94.19,-94.19" /><path
         id="path172"
         style="fill:#dadbd8;fill-opacity:1;fill-rule:nonzero;stroke:none"
         d="m 2258.8,3054.78 h -135.42 v 93.27 h 135.42 v -93.27" /><path
         id="path174"
         style="fill:#17282f;fill-opacity:1;fill-rule:nonzero;stroke:none"
         d="m 2258.8,3054.78 c -0.16,0.15 -0.3,2.58 -0.46,7.01 -0.15,5.06 -0.33,11.35 -0.54,18.99 -0.27,16.93 -0.65,39.79 -1.1,67.27 l 2.1,-2.09 c -37.92,-0.15 -84.73,-0.32 -135.41,-0.51 -0.58,-0.56 4.92,4.92 2.59,2.59 v -0.02 -0.05 -0.1 -0.2 -0.39 -0.78 -1.56 -3.1 -6.19 c 0,-4.1 -0.01,-8.19 -0.01,-12.23 -0.02,-8.09 -0.03,-16.05 -0.05,-23.87 -0.05,-15.59 -0.11,-30.57 -0.16,-44.77 l -2.38,2.38 c 39.44,-0.2 72.96,-0.73 96.9,-1.18 11.43,-0.25 20.8,-0.47 28.09,-0.64 6.59,-0.19 10.24,-0.37 10.43,-0.56 0.19,-0.19 -3.11,-0.37 -9.41,-0.56 -7.16,-0.17 -16.34,-0.38 -27.55,-0.64 -23.8,-0.46 -57.99,-0.98 -98.46,-1.17 l -2.37,-0.02 -0.01,2.39 c -0.05,14.2 -0.1,29.18 -0.16,44.77 -0.02,7.82 -0.03,15.78 -0.05,23.87 0,4.04 -0.01,8.13 -0.01,12.23 v 6.19 3.1 1.56 0.78 0.39 0.2 0.1 0.05 0.02 c -2.33,-2.32 3.17,3.18 2.61,2.62 50.68,-0.19 97.49,-0.37 135.41,-0.52 h 2.11 l -0.02,-2.09 c -0.23,-28.85 -0.71,-52.43 -1.09,-68.57 -0.22,-7.46 -0.4,-13.59 -0.54,-18.52 -0.16,-4.2 -0.31,-6.33 -0.46,-6.18" /><path
         id="path176"
         style="fill:#17282f;fill-opacity:1;fill-rule:nonzero;stroke:none"
         d="m 1574.04,2614.86 c -1.44,0 -2.61,93.2 -2.61,208.16 0,114.98 1.17,208.17 2.61,208.17 1.44,0 2.6,-93.19 2.6,-208.17 0,-114.96 -1.16,-208.16 -2.6,-208.16" /><path
         id="path178"
         style="fill:#17282f;fill-opacity:1;fill-rule:nonzero;stroke:none"
         d="m 2220.29,2614.86 c -1.44,0 -2.61,93.2 -2.61,208.16 0,114.98 1.17,208.17 2.61,208.17 1.44,0 2.6,-93.19 2.6,-208.17 0,-114.96 -1.16,-208.16 -2.6,-208.16" /><path
         id="path180"
         style="fill:#dadbd8;fill-opacity:1;fill-rule:nonzero;stroke:none"
         d="m 1753.02,3101.38 c 0,-16.72 -13.56,-30.28 -30.28,-30.28 -16.73,0 -30.28,13.56 -30.28,30.28 0,16.73 13.55,30.29 30.28,30.29 16.72,0 30.28,-13.56 30.28,-30.29" /><path
         id="path182"
         style="fill:#17282f;fill-opacity:1;fill-rule:nonzero;stroke:none"
         d="m 1753.02,3101.38 c -0.45,-0.01 -0.54,2.7 -1.92,7.15 -1.38,4.37 -4.53,10.69 -11.15,15.46 -6.41,4.79 -16.78,7.37 -26.71,3.58 -9.85,-3.48 -18.29,-13.97 -18.18,-26.19 -0.11,-12.21 8.33,-22.7 18.18,-26.19 9.94,-3.78 20.3,-1.21 26.71,3.59 6.63,4.77 9.77,11.08 11.15,15.46 1.38,4.45 1.47,7.15 1.92,7.14 0.26,0.02 0.89,-2.71 0.04,-7.64 -0.85,-4.82 -3.7,-12.09 -10.88,-17.89 -6.92,-5.81 -18.81,-9.33 -30.57,-5.17 -11.66,3.79 -21.9,16.17 -21.76,30.7 -0.14,14.54 10.1,26.91 21.76,30.7 11.76,4.17 23.65,0.64 30.57,-5.16 7.18,-5.8 10.03,-13.07 10.88,-17.9 0.85,-4.93 0.22,-7.65 -0.04,-7.64" /><path
         id="path184"
         style="fill:#f9a78d;fill-opacity:1;fill-rule:nonzero;stroke:none"
         d="m 1649.4,3254.3 c 0,0 -87.45,48.6 -109.68,50.09 -22.23,1.48 -142.28,-62.25 -151.17,-74.11 -8.89,-11.85 -65.21,-210.45 -65.21,-210.45 0,0 -121.53,-19.27 -96.34,-120.05 0,0 2.97,-88.93 10.38,-127.46 7.41,-38.53 14.82,-204.52 14.82,-204.52 l 207.49,-131.91 123.02,216.38 42.97,99.3 -182.29,295.12 22.23,133.2 69.66,42.97 c 0,0 80.03,-42.37 114.12,31.44" /><path
         id="path186"
         style="fill:#f9a78d;fill-opacity:1;fill-rule:nonzero;stroke:none"
         d="m 1354.92,3025.75 c 0,0 89.97,64.51 117.31,71.73 27.35,7.22 42.88,8.37 64.41,0 21.52,-8.37 124.24,-146.51 149.44,-172.15 25.19,-25.64 49.01,-70.54 49.01,-70.54 0,0 -27.5,-41.97 -72.93,-22.18 l 40.65,-112.91 c 0,0 -29.89,-56.19 -72.93,0 l 2.48,-8.24 c 7.78,-25.93 8.06,-53.53 0.79,-79.61 l -12.83,-46.05 c 0,0 -47.82,0 -50.21,83.69 l -41.84,65.63 -81.3,14.47 -2.39,-39.45 c 0,0 20.64,-72.93 27.65,-127.92 7.02,-55 -45.58,-114.77 -45.58,-114.77 l -157.81,121.94 c 0,0 -23.91,274.97 -22.71,315.62 1.19,40.64 37.06,50.21 37.06,50.21 l 71.73,70.53" /><path
         id="path188"
         style="fill:#f57f62;fill-opacity:1;fill-rule:nonzero;stroke:none"
         d="m 1665.3,2827.42 c -0.32,-0.15 -3.15,5.03 -7.98,14.53 -5.13,10.35 -11.87,23.98 -20.02,40.44 -8.42,17.42 -18.25,37.79 -29.1,60.27 -5.55,11.24 -10.88,23.56 -17.29,35.32 -3.3,5.8 -7.2,11.37 -12.27,15.66 -5.02,4.33 -11.31,6.97 -18.11,7.77 -13.76,1.56 -27.47,-2.97 -40.65,-6.46 -13.2,-3.58 -25.95,-7.05 -38.14,-10.36 -24.12,-6.43 -45.98,-12.26 -64.66,-17.24 -17.8,-4.56 -32.53,-8.33 -43.72,-11.2 -10.36,-2.53 -16.12,-3.76 -16.22,-3.42 -0.09,0.35 5.49,2.24 15.68,5.37 11.08,3.28 25.66,7.59 43.28,12.8 18.6,5.29 40.36,11.49 64.37,18.32 12.15,3.41 24.88,6.96 38.06,10.65 13.09,3.48 27.16,8.38 42.63,6.71 7.64,-0.86 15.15,-4.02 20.84,-8.99 5.75,-4.91 9.92,-11.01 13.35,-17.1 6.65,-12.35 11.71,-24.39 17.19,-35.78 10.47,-22.66 19.97,-43.19 28.09,-60.75 7.54,-16.75 13.78,-30.61 18.52,-41.14 4.27,-9.77 6.48,-15.24 6.15,-15.4" /><path
         id="path190"
         style="fill:#f57f62;fill-opacity:1;fill-rule:nonzero;stroke:none"
         d="m 1636.68,2701.3 c -0.32,-0.1 -2.13,4.99 -4.7,14.36 -2.64,9.36 -5.72,23.09 -10.71,39.59 -5.14,16.2 -12.44,36.26 -28.92,51.44 -8.3,7.44 -18.6,13.44 -29.76,18.7 -11.33,5.23 -23.04,10.63 -35.03,16.17 -48.27,21.65 -92.48,40.25 -124,54.84 -15.79,7.22 -28.43,13.38 -37.11,17.73 -8.65,4.43 -13.35,7.04 -13.2,7.36 0.16,0.32 5.15,-1.67 14.06,-5.52 9.79,-4.2 22.48,-9.65 37.74,-16.2 31.86,-13.71 76.26,-31.75 124.65,-53.46 12.09,-5.42 23.81,-10.93 35.09,-16.32 11.36,-5.43 22.06,-11.74 30.78,-19.75 17.46,-16.52 24.44,-37.42 29.23,-53.95 4.61,-16.85 7.12,-30.67 9.15,-40.15 1.96,-9.5 3.1,-14.74 2.73,-14.84" /><path
         id="path192"
         style="fill:#f57f62;fill-opacity:1;fill-rule:nonzero;stroke:none"
         d="m 1479.25,3098.91 c 0.42,-0.58 -9.68,-8.99 -26.34,-22.1 -16.67,-13.12 -39.91,-30.95 -65.77,-50.38 -25.86,-19.44 -49.46,-36.81 -66.69,-49.17 -17.24,-12.36 -28.12,-19.73 -28.56,-19.16 -0.43,0.57 9.65,8.97 26.32,22.08 16.67,13.12 39.92,30.96 65.8,50.41 25.87,19.45 49.47,36.82 66.71,49.18 17.23,12.37 28.1,19.72 28.53,19.14" /><path
         id="path194"
         style="fill:#f57f62;fill-opacity:1;fill-rule:nonzero;stroke:none"
         d="m 1547.78,2834.05 c -0.43,-0.3 -3.74,3.18 -7.06,10.4 -3.3,7.13 -6.27,18.32 -4.9,31.2 l 3.29,-2.72 c -3.71,-1.2 -7.62,-2.39 -11.69,-3.46 -29.96,-8.03 -55.31,-6.84 -55.22,-5.51 -0.06,1.55 24.68,2.69 53.89,10.54 3.93,1.12 7.74,2.21 11.48,3.28 l 3.77,1.07 -0.47,-3.79 c -1.51,-11.81 0.58,-22.33 2.91,-29.43 2.32,-7.16 4.6,-11.2 4,-11.58" /><path
         id="path196"
         style="fill:#f57f62;fill-opacity:1;fill-rule:nonzero;stroke:none"
         d="m 1620.32,2585.8 c 0,0 -7.65,0.27 -20.3,5.83 -6.18,2.89 -13.47,8.4 -17.83,17.5 -4.2,9.26 -5.59,20.07 -8.47,31.87 -2.54,11.84 -5.67,24.61 -11.31,37.54 -5.46,12.96 -13.9,25.55 -22.25,39.39 -4.1,6.82 -8.15,14.06 -14.45,18.42 -3.15,2.32 -6.52,3 -10.79,3.32 -4.15,0.32 -8.46,0.43 -12.82,0.51 -17.39,0.57 -36.11,-0.09 -54.43,7.13 l 3.43,1.36 c -0.54,-1.49 -1.25,-3.06 -1.75,-4.72 -5.68,-17.36 -3.55,-36.07 1.24,-52.75 4.4,-17.02 13.84,-31.21 21.85,-45.66 3.99,-7.22 7.49,-14.63 9.93,-22.19 2.35,-7.41 4.6,-14.63 6.5,-21.69 3.88,-14.1 6.74,-27.48 8.36,-39.85 3.37,-24.76 1.21,-45.34 -2.85,-58.69 -1.92,-6.71 -4.03,-11.74 -5.79,-14.96 -1.7,-3.25 -2.66,-4.9 -2.82,-4.82 -0.54,0.25 3.34,6.98 6.65,20.3 3.38,13.26 4.93,33.36 1.17,57.66 -1.84,12.14 -4.86,25.28 -8.88,39.19 -4.2,13.95 -8.16,28.84 -16.47,42.72 -7.89,14 -17.88,28.85 -22.55,46.57 -5.01,17.23 -7.44,36.94 -1.28,55.81 0.54,1.8 1.31,3.51 1.9,5.13 l 0.89,2.38 2.56,-1.02 c 16.54,-6.59 35.13,-6.25 52.45,-6.82 4.38,-0.1 8.74,-0.22 13.15,-0.59 4.25,-0.24 9.52,-1.4 13.16,-4.24 7.63,-5.45 11.67,-13.28 15.74,-20.08 8.11,-13.7 16.62,-26.66 22.09,-40.14 5.62,-13.35 8.63,-26.57 10.94,-38.45 2.6,-11.75 3.91,-22.99 7.51,-31.41 3.79,-8.51 10.32,-13.87 16.13,-16.93 11.91,-5.92 19.63,-6.97 19.39,-7.62" /><path
         id="path198"
         style="fill:#33535f;fill-opacity:1;fill-rule:nonzero;stroke:none"
         d="m 1617.5,3562.2 c 0.7,0 1.4,-10.29 1.73,-26.95 0.33,-16.64 0.27,-39.71 -1.24,-65.1 -1.49,-25.32 -2.14,-48.23 -2.74,-64.86 -0.62,-16.62 -1.23,-26.92 -1.97,-26.91 -0.7,0 -1.39,10.29 -1.72,26.94 -0.33,16.64 -0.27,39.72 1.23,65.11 1.5,25.32 2.14,48.22 2.75,64.86 0.62,16.62 1.22,26.92 1.96,26.91" /><path
         id="path200"
         style="fill:#33535f;fill-opacity:1;fill-rule:nonzero;stroke:none"
         d="m 1573.52,3388.4 c -1.89,-2.27 -23.46,24.69 -48.13,58.32 -12.38,16.9 -23.27,32.42 -30.93,43.81 -7.66,11.39 -12.08,18.66 -11.5,19.08 0.59,0.42 6.06,-6.08 14.49,-16.92 8.42,-10.84 19.77,-26 32.14,-42.89 11.59,-16.08 22.1,-30.66 31.32,-43.44 4.69,-6.68 8.55,-12.19 12.61,-17.96" /><path
         id="path202"
         style="fill:#33535f;fill-opacity:1;fill-rule:nonzero;stroke:none"
         d="m 1565.9,3355.2 c 0.42,-2.91 -34.04,-0.94 -75.55,3.19 -20.84,2.09 -39.67,4.36 -53.26,6.28 -13.59,1.92 -21.96,3.48 -21.88,4.2 0.08,0.71 8.59,0.44 22.27,-0.54 13.69,-0.98 32.57,-2.67 53.39,-4.76 19.71,-2.13 37.57,-4.05 53.25,-5.74 8.1,-0.98 14.78,-1.78 21.78,-2.63" /><path
         id="path204"
         style="fill:#33535f;fill-opacity:1;fill-rule:nonzero;stroke:none"
         d="m 1655.94,3380.41 c 4.05,5.77 7.91,11.28 12.6,17.96 9.23,12.79 19.73,27.36 31.32,43.44 12.37,16.89 23.73,32.06 32.15,42.9 8.42,10.83 13.9,17.34 14.48,16.91 0.59,-0.41 -3.84,-7.68 -11.5,-19.07 -7.65,-11.4 -18.55,-26.92 -30.92,-43.81 -24.67,-33.64 -46.25,-60.59 -48.13,-58.33" /><path
         id="path206"
         style="fill:#33535f;fill-opacity:1;fill-rule:nonzero;stroke:none"
         d="m 1663.56,3347.21 c 7,0.85 13.67,1.66 21.78,2.64 15.67,1.69 33.53,3.61 53.25,5.73 20.82,2.09 39.69,3.78 53.38,4.76 13.69,0.98 22.19,1.25 22.27,0.54 0.08,-0.72 -8.29,-2.28 -21.88,-4.2 -13.59,-1.92 -32.41,-4.19 -53.25,-6.28 -41.51,-4.13 -75.98,-6.1 -75.55,-3.19" /><path
         id="path208"
         style="fill:#ffffff;fill-opacity:1;fill-rule:nonzero;stroke:none"
         d="m 1856.31,2844.69 31.4,-11.81 -27.26,-7.73 c -9.1,-2.58 -16.32,-9.51 -19.26,-18.5 l -9.87,-30.15 -12.13,30.24 c -3.01,7.5 -9.08,13.37 -16.68,16.13 l -27.58,10.01 29.88,12.28 c 7.22,2.97 12.91,8.78 15.72,16.08 l 10.79,28.04 7.74,-26.07 c 2.54,-8.53 8.92,-15.38 17.25,-18.52" /><path
         id="path210"
         style="fill:#ffffff;fill-opacity:1;fill-rule:nonzero;stroke:none"
         d="m 1906.66,2701.97 c 0.06,-0.55 -9.59,-2.11 -25.09,0.03 -15.38,2.05 -36.68,8.72 -55.97,23.12 -19.31,14.39 -31.79,32.9 -38.13,47.06 -6.47,14.25 -7.72,23.94 -7.19,24.03 0.85,0.25 3.36,-8.99 10.49,-22.39 7.01,-13.36 19.45,-30.74 37.94,-44.53 18.48,-13.78 38.68,-20.75 53.48,-23.67 14.89,-3 24.46,-2.77 24.47,-3.65" /><path
         id="path212"
         style="fill:#ffffff;fill-opacity:1;fill-rule:nonzero;stroke:none"
         d="m 2049.53,2814.81 c -0.91,0.08 0.4,11.1 -1.57,28.6 -1.88,17.39 -8,41.45 -22.31,64.08 -14.31,22.64 -33.41,38.49 -48.31,47.65 -14.97,9.3 -25.48,12.84 -25.16,13.7 0.11,0.31 2.84,-0.23 7.61,-1.82 4.77,-1.56 11.52,-4.36 19.42,-8.7 15.75,-8.56 35.99,-24.54 50.85,-48.05 14.85,-23.49 20.6,-48.64 21.56,-66.54 0.54,-9 0.17,-16.29 -0.46,-21.27 -0.62,-4.99 -1.31,-7.69 -1.63,-7.65" /><path
         id="path214"
         style="fill:#f9a78d;fill-opacity:1;fill-rule:nonzero;stroke:none"
         d="m 2191.09,2328.9 c 0,0 69.03,-1108.75 111.56,-1211.85 68.87,-166.968 180.34,-230.21 361.38,-161.109 207.23,79.079 566.16,730.659 566.16,730.659 l -194.71,441.38 -390.37,-586.87 -216.39,894.78 -237.63,-106.99" /><path
         id="path216"
         style="fill:#f9a78d;fill-opacity:1;fill-rule:nonzero;stroke:none"
         d="m 2230.43,1802.07 -35.23,458.18 c 0,0 -35.81,25.06 -34.6,71.22 1.22,46.16 7.79,94.13 7.79,94.13 l 1.99,107.61 c 0,0 -37.35,25.21 -48.32,54.66 -10.97,29.45 -9.23,56.16 5.06,76.94 14.29,20.78 6.92,10.06 6.92,10.06 l 0.23,43.49 c 0,0 -9.26,2.8 -7.47,32.4 1.8,29.6 42.46,115.5 42.46,115.5 0,0 -41.1,-12.51 -54.31,14.13 -2.04,4.11 35.18,106.93 56.21,124.63 21.02,17.69 66.18,22.17 92.4,17.22 32.06,-6.05 48.48,-33.44 70.45,-57.5 20.19,-22.1 144.46,-169.43 148.28,-192.01 3.81,-22.59 -8.92,-57.25 -8.92,-57.25 0,0 7.31,-19.63 5.81,-51.76 -1.52,-32.13 -31.57,-305.95 -31.57,-305.95 l 136.16,-562.99 73.65,-300.29" /><path
         id="path218"
         style="fill:#f57f62;fill-opacity:1;fill-rule:nonzero;stroke:none"
         d="m 2657.42,1494.49 c 0,0 -0.47,1.34 -1.19,4.02 -0.75,2.85 -1.79,6.82 -3.15,12.01 -2.72,10.76 -6.69,26.43 -11.84,46.78 -10.25,41.11 -25.16,100.97 -44.04,176.73 -37.06,152.06 -89.64,367.8 -151.88,623.19 l -0.1,0.4 0.04,0.42 c 5.91,55.28 12.09,113.14 18.49,172.99 3.04,29.93 6.14,60.36 9.28,91.21 1.37,15.4 3.2,31.02 3.75,46.48 0.28,15.38 -1.2,31.34 -5.81,45.86 l -0.3,0.94 0.29,0.85 c 3.62,10.41 6.55,21.35 8.23,32.37 1.29,10.84 2.98,22.81 -3.1,31.73 -11.19,19.52 -25.74,37.85 -39.77,56.35 -28.62,36.79 -58.77,73.35 -89.85,109.73 -5.79,6.77 -11.56,13.32 -17.52,19.95 l -17.23,20.12 c -11.39,13.09 -24.07,25.52 -40.17,30.78 -15.94,5.11 -33.71,4.73 -50.47,2.88 -16.71,-2.19 -33.82,-6.42 -46.9,-16.22 -6.16,-4.87 -10.45,-12.36 -14.75,-19.48 -4.12,-7.32 -7.96,-14.81 -11.48,-22.45 -7.11,-15.24 -13.5,-30.75 -19.36,-46.33 -2.87,-7.8 -5.74,-15.6 -8.2,-23.45 l -1.75,-5.87 c -0.32,-0.99 -0.49,-1.92 -0.72,-2.87 -0.28,-0.96 -0.38,-2.13 -0.48,-1.94 l 0.19,-0.82 0.75,-1.2 1.49,-2.4 c 1.34,-1.3 2.34,-2.96 3.92,-4.01 5.77,-4.84 13.57,-6.96 21.39,-7.28 7.8,-0.42 15.91,0.7 23.35,2.7 l 5.28,1.41 -2.28,-4.89 c -11.36,-24.43 -22.04,-48.92 -31.08,-73.53 -4.34,-12.29 -8.84,-24.73 -10.71,-37.14 -0.91,-6.09 -0.9,-12.68 -0.35,-18.8 0.26,-3.09 0.85,-6.12 1.76,-8.91 0.73,-2.64 2.79,-5.63 3.82,-6.13 l 1.73,-0.82 -0.01,-1.51 c -0.09,-14.75 -0.18,-29.18 -0.27,-43.48 l -4.35,1.36 1.59,2.31 0.2,0.29 0.1,0.15 v -0.01 c 1.74,-1.22 -3.94,2.67 3.9,-2.74 l -0.05,-0.07 -0.4,-0.58 -0.79,-1.15 -3.18,-4.61 c -2.08,-3.07 -4.31,-6.16 -6.16,-9.16 -3.82,-6.07 -6.48,-12.79 -8.09,-19.7 -3.28,-13.89 -2.04,-28.48 1.73,-42.07 3.37,-13.94 10.62,-25.82 19.89,-36.31 9.15,-10.45 19.76,-19.65 30.82,-27.51 l 1,-0.72 -0.02,-1.17 c -0.73,-37.11 -1.43,-72.93 -2.11,-107.61 l -0.01,-0.12 -0.01,-0.13 c -4.05,-31.28 -6.79,-61.68 -7.79,-90.98 -1.9,-29.01 12.59,-56.36 33.58,-72.55 l 0.72,-0.57 0.06,-0.82 c 10.53,-141.49 19.05,-256 24.95,-335.32 2.82,-39.5 5.01,-70.19 6.51,-91.19 0.68,-10.32 1.2,-18.22 1.56,-23.72 0.33,-5.35 0.36,-8.09 0.36,-8.09 0,0 -0.39,2.71 -0.89,8.06 -0.49,5.48 -1.18,13.37 -2.09,23.68 -1.73,20.97 -4.25,51.65 -7.5,91.1 -6.29,79.29 -15.38,193.76 -26.6,335.2 l 0.78,-1.38 c -22.19,16.93 -37.23,45.45 -35.42,75.73 0.93,29.5 3.58,59.94 7.58,91.43 l -0.02,-0.25 c 0.61,34.69 1.23,70.5 1.88,107.61 l 0.98,-1.89 c -11.52,8.15 -22.22,17.4 -31.75,28.21 -9.5,10.58 -17.49,23.79 -20.92,38.08 -3.94,14.12 -5.33,29.5 -1.85,44.36 1.7,7.4 4.55,14.61 8.63,21.13 2.05,3.31 4.18,6.26 6.28,9.36 l 3.17,4.62 0.8,1.15 0.39,0.58 0.05,0.07 c 7.86,-5.39 2.19,-1.47 3.96,-2.66 v 0 l -0.1,-0.14 -0.2,-0.29 -1.59,-2.32 -4.39,-6.39 0.04,7.76 c 0.07,14.31 0.13,28.73 0.21,43.49 l 1.71,-2.33 c -4.8,2.48 -5.63,5.94 -7,9.19 -1.09,3.31 -1.72,6.66 -2.02,9.99 -0.58,6.71 -0.62,13.19 0.34,19.95 2.03,13.32 6.54,25.67 10.92,38.17 9.11,24.86 19.77,49.38 31.19,73.99 l 3,-3.47 c -8.24,-2.21 -16.52,-3.35 -25.08,-2.93 -8.44,0.34 -17.39,2.6 -24.39,8.42 -3.47,3.08 -6.29,6.05 -8.03,11.15 -0.19,2.28 0.27,3.11 0.46,4.17 0.25,1.06 0.47,2.16 0.78,3.15 l 1.8,6.06 c 2.5,7.99 5.38,15.83 8.27,23.71 5.9,15.69 12.31,31.3 19.5,46.71 3.54,7.73 7.44,15.34 11.66,22.85 4.46,7.31 8.73,15.1 16.03,20.97 14.54,10.82 32.18,14.97 49.45,17.3 17.38,1.87 35.31,2.42 52.77,-3.1 17.54,-5.76 30.9,-19.06 42.42,-32.28 l 17.21,-20.09 c 5.87,-6.52 11.81,-13.28 17.57,-20.01 31.15,-36.46 61.31,-73.04 90.01,-109.95 14.12,-18.66 28.53,-36.74 40.21,-57.09 1.53,-2.41 2.74,-5.35 3.74,-8.47 0.94,-3.02 0.99,-5.99 1.12,-8.96 0.17,-5.94 -0.38,-11.77 -1.23,-17.5 -1.76,-11.48 -4.73,-22.51 -8.5,-33.37 v 1.77 c 5,-15.8 6.35,-31.81 6.1,-47.76 -0.58,-15.95 -2.43,-31.38 -3.81,-46.86 -3.17,-30.85 -6.31,-61.29 -9.38,-91.24 -6.48,-59.84 -12.74,-117.7 -18.72,-172.99 l -0.05,0.81 c 61.49,-255.57 113.44,-471.47 150.05,-623.62 18.32,-75.9 32.8,-135.87 42.74,-177.06 4.85,-20.42 8.58,-36.15 11.13,-46.95 1.21,-5.22 2.12,-9.24 2.78,-12.09 0.59,-2.71 0.81,-4.12 0.81,-4.12" /><path
         id="path220"
         style="fill:#f9a78d;fill-opacity:1;fill-rule:nonzero;stroke:none"
         d="m 2169.26,2866.26 c 9.42,20.3 20.82,42.49 41.86,50.1 13.31,4.81 28.34,2.65 41.35,-2.92 13.01,-5.57 24.37,-14.3 35.53,-22.98 61.93,-48.19 123.17,-98.63 170.77,-161" /><path
         id="path222"
         style="fill:#f57f62;fill-opacity:1;fill-rule:nonzero;stroke:none"
         d="m 2458.77,2729.46 c -0.3,-0.22 -3.9,3.84 -10.2,11.32 -6.49,7.32 -15.68,18.08 -27.84,30.64 -24.06,25.36 -59.89,57.82 -101.61,91.15 -10.47,8.29 -20.68,16.38 -30.56,24.22 -9.91,7.78 -19.41,15.23 -29.34,20.69 -9.87,5.53 -20.25,8.84 -30.17,9.33 -9.92,0.58 -19.07,-2.06 -26.15,-6.65 -14.25,-9.37 -21.12,-22.53 -26.05,-30.7 -4.78,-8.51 -7.21,-13.38 -7.59,-13.2 -0.27,0.13 1.52,5.26 5.8,14.14 4.48,8.54 10.78,22.28 25.84,32.86 7.48,5.16 17.6,8.32 28.32,7.87 10.71,-0.33 21.9,-3.76 32.29,-9.43 10.46,-5.6 20.24,-13.17 30.19,-20.89 9.92,-7.82 20.17,-15.9 30.68,-24.19 41.84,-33.42 77.53,-66.54 101.03,-92.69 11.89,-12.95 20.71,-24.13 26.73,-31.88 5.85,-7.9 8.91,-12.38 8.63,-12.59" /><path
         id="path224"
         style="fill:#f9a78d;fill-opacity:1;fill-rule:nonzero;stroke:none"
         d="m 2133.15,2718.44 c 4.38,15.52 8.86,31.3 17.5,44.94 8.63,13.62 22.17,25.05 38.16,27.24 19.42,2.66 37.82,-8.34 54.34,-18.9 33.6,-21.47 67.21,-42.94 100.81,-64.41" /><path
         id="path226"
         style="fill:#f57f62;fill-opacity:1;fill-rule:nonzero;stroke:none"
         d="m 2343.96,2707.31 c -0.18,-0.31 -3.62,1.48 -9.66,4.96 -6.03,3.49 -14.67,8.68 -25.29,15.18 -21.28,12.79 -50.28,31.8 -82.49,51.23 -8.18,4.45 -16.59,7.97 -25.03,9.25 -8.44,1.36 -16.74,0.18 -23.86,-3.08 -14.43,-6.57 -23.68,-18.74 -29.36,-29.36 -5.75,-10.81 -8.83,-20.43 -11.16,-26.96 -2.27,-6.57 -3.61,-10.2 -3.96,-10.09 -0.34,0.09 0.33,3.89 2.02,10.67 1.76,6.75 4.3,16.63 9.83,28.07 5.49,11.23 14.86,24.52 30.64,32.04 7.8,3.75 17.3,5.21 26.59,3.76 9.33,-1.35 18.3,-5.12 26.78,-9.72 32.84,-19.8 61.07,-39.04 81.98,-52.7 10.37,-6.9 18.71,-12.56 24.41,-16.58 5.7,-4.01 8.76,-6.37 8.56,-6.67" /><path
         id="path228"
         style="fill:#f9a78d;fill-opacity:1;fill-rule:nonzero;stroke:none"
         d="m 2133.8,2675.28 c 19.6,13.76 41.99,28.19 65.61,24.21 18.79,-3.17 33.53,-17.36 46.98,-30.86 26.89,-26.98 53.78,-53.96 80.67,-80.95" /><path
         id="path230"
         style="fill:#f57f62;fill-opacity:1;fill-rule:nonzero;stroke:none"
         d="m 2327.06,2587.68 c -0.51,-0.5 -10.58,8.68 -26.45,23.93 -15.87,15.23 -37.53,36.64 -61.24,60.32 -11.79,11.6 -24.38,21.69 -38.05,24.71 -13.62,3.21 -26.49,-0.52 -36.31,-4.68 -19.72,-9.01 -30.66,-17.61 -31.21,-16.68 -0.2,0.28 2.36,2.55 7.31,6.26 4.99,3.62 12.28,8.92 22.38,13.78 9.95,4.72 23.67,9.26 38.87,6.01 15.23,-3.12 28.69,-13.93 40.64,-25.67 23.82,-23.78 44.99,-45.53 60.22,-61.45 15.19,-15.92 24.35,-26.02 23.84,-26.53" /><path
         id="path232"
         style="fill:#f9a78d;fill-opacity:1;fill-rule:nonzero;stroke:none"
         d="m 2163.34,2581.24 c 21.16,-23.7 44.93,-45.07 70.74,-63.61" /><path
         id="path234"
         style="fill:#f57f62;fill-opacity:1;fill-rule:nonzero;stroke:none"
         d="m 2234.08,2517.63 c -0.76,-1.13 -19.15,10.17 -38.85,27.93 -19.76,17.71 -32.94,34.8 -31.89,35.68 1.13,0.99 15.88,-14.35 35.37,-31.81 19.42,-17.52 36.24,-30.56 35.37,-31.8" /><path
         id="path236"
         style="fill:#f9a78d;fill-opacity:1;fill-rule:nonzero;stroke:none"
         d="m 2354.07,2552.37 c 9.25,-23.06 7.93,-50.12 -3.52,-72.16" /><path
         id="path238"
         style="fill:#f57f62;fill-opacity:1;fill-rule:nonzero;stroke:none"
         d="m 2350.55,2480.21 c -1.42,0.68 6.1,15.73 6.93,35.82 1.12,20.1 -4.9,35.79 -3.41,36.34 1.08,0.75 9.76,-15.08 8.6,-36.59 -0.94,-21.51 -11.11,-36.43 -12.12,-35.57" /><path
         id="path240"
         style="fill:#f9a78d;fill-opacity:1;fill-rule:nonzero;stroke:none"
         d="m 2408.17,2645.97 c 15.27,-5.77 28.14,-17.66 35.09,-32.43 6.96,-14.77 7.93,-32.26 2.65,-47.71" /><path
         id="path242"
         style="fill:#f57f62;fill-opacity:1;fill-rule:nonzero;stroke:none"
         d="m 2445.91,2565.83 c -0.79,0.26 0.77,5.55 1.19,14.17 0.47,8.55 -0.66,20.66 -6.2,32.43 -5.54,11.77 -14.16,20.35 -21.05,25.43 -6.92,5.17 -11.98,7.34 -11.68,8.11 0.18,0.58 5.83,-0.38 13.72,-5.04 7.83,-4.56 17.68,-13.44 23.73,-26.28 6.04,-12.85 6.61,-26.08 5.15,-35.02 -1.44,-9.05 -4.3,-14.03 -4.86,-13.8" /><path
         id="path244"
         style="fill:#f57f62;fill-opacity:1;fill-rule:nonzero;stroke:none"
         d="m 2721.54,1197.13 c -0.35,-0.06 -1.45,4.86 -3.12,13.79 -1.84,9.9 -4.2,22.59 -7.05,37.8 -6.02,31.88 -15.05,75.8 -27.02,123.83 -12.01,48.03 -24.67,91.05 -34.33,122.03 -4.64,14.75 -8.52,27.07 -11.54,36.68 -2.72,8.66 -4.07,13.51 -3.73,13.64 0.34,0.12 2.34,-4.5 5.65,-12.97 3.34,-8.46 7.84,-20.83 13.12,-36.21 10.58,-30.74 23.84,-73.73 35.88,-121.91 12,-48.17 20.49,-92.34 25.61,-124.46 2.56,-16.05 4.39,-29.09 5.42,-38.12 1.05,-9.03 1.47,-14.05 1.11,-14.1" /><path
         id="path246"
         style="fill:#f2575d;fill-opacity:1;fill-rule:nonzero;stroke:none"
         d="m 2922.2,2242.72 c 65.98,68.66 174.05,78.62 248.83,19.68 30.24,-23.83 58.65,-54.12 78.48,-92.13 29.34,-56.27 75.1,-200.6 70.52,-348.47 -7.23,-233.12 -113.19,-645.23 -113.19,-645.23 l -570.7,394.68 -25.15,102.52 147.83,325.73 107.31,184.87 56.07,58.35" /><path
         id="path248"
         style="fill:#17282f;fill-opacity:1;fill-rule:nonzero;stroke:none"
         d="m 3076.6,2300.18 c -0.09,-0.62 -10.5,2.08 -29.57,1.82 -18.93,-0.54 -46.79,-5.27 -76.95,-21.22 -30.34,-15.48 -61.31,-42.91 -88.33,-78.99 -27.21,-35.95 -51.71,-79.49 -77.75,-124.75 -51.6,-90.93 -92.69,-176.29 -120.77,-238.76 -14.03,-31.25 -24.86,-56.78 -32.4,-74.4 -3.61,-8.45 -6.49,-15.2 -8.66,-20.3 -2.03,-4.63 -3.17,-7.02 -3.34,-6.95 -0.16,0.06 0.65,2.59 2.37,7.33 1.94,5.2 4.52,12.08 7.74,20.69 6.97,17.86 17.3,43.63 30.92,75.11 27.25,62.94 67.91,148.73 119.61,239.85 26.08,45.33 50.72,88.85 78.48,125.1 27.49,36.3 59.34,64.02 90.45,79.35 30.9,15.81 59.42,20.05 78.61,19.96 19.35,-0.35 29.59,-3.84 29.59,-3.84" /><path
         id="path250"
         style="fill:#ffffff;fill-opacity:1;fill-rule:nonzero;stroke:none"
         d="m 3272.35,1487.63 c -0.1,-0.14 -2.22,1 -6.15,3.32 -4.36,2.62 -10.02,6.05 -17.08,10.32 -15.3,9.36 -36.55,22.36 -62.59,38.3 -52.89,32.24 -126.4,76.08 -209.09,121.81 -41.41,22.79 -81.22,43.8 -117.69,62.42 -36.62,18.3 -69.71,34.55 -97.94,47.27 -14.02,6.56 -26.84,12.21 -38.13,17.09 -11.24,4.98 -20.95,9.22 -28.98,12.48 -7.57,3.23 -13.67,5.82 -18.35,7.82 -4.18,1.84 -6.34,2.89 -6.28,3.05 0.07,0.17 2.36,-0.55 6.66,-2.08 4.77,-1.76 10.99,-4.05 18.74,-6.91 8.14,-2.97 17.97,-6.95 29.35,-11.68 11.42,-4.64 24.36,-10.05 38.5,-16.41 28.46,-12.31 61.79,-28.25 98.58,-46.35 36.65,-18.4 76.59,-39.32 118.06,-62.13 82.79,-45.8 156.08,-90.19 208.51,-123.26 26.25,-16.47 47.29,-30.13 61.74,-39.71 6.84,-4.61 12.34,-8.31 16.55,-11.16 3.76,-2.59 5.69,-4.03 5.59,-4.19" /><path
         id="path252"
         style="fill:#ffffff;fill-opacity:1;fill-rule:nonzero;stroke:none"
         d="m 3319.5,1889.97 c -0.11,-0.14 -1.75,0.89 -4.75,2.97 -3.45,2.45 -7.73,5.52 -12.98,9.27 -5.53,4.16 -12.4,9.11 -20.72,14.35 -8.26,5.33 -17.41,11.77 -28.18,17.87 -21.05,12.99 -47.11,26.77 -76.44,41.22 -29.49,14.16 -62.39,28.76 -97.19,43.54 -34.83,14.74 -68.05,28.78 -98.01,42.16 -29.91,13.5 -56.59,26.28 -78.44,38.11 -11.07,5.63 -20.68,11.48 -29.25,16.38 -8.59,4.83 -15.77,9.39 -21.54,13.25 -5.39,3.57 -9.8,6.5 -13.32,8.85 -3.01,2.06 -4.54,3.22 -4.45,3.37 0.1,0.15 1.83,-0.72 5.01,-2.49 3.67,-2.12 8.23,-4.77 13.81,-8 5.93,-3.59 13.23,-7.87 21.94,-12.45 8.66,-4.64 18.36,-10.25 29.5,-15.64 21.98,-11.36 48.73,-23.77 78.68,-37 30.01,-13.11 63.25,-26.99 98.12,-41.75 34.82,-14.79 67.76,-29.57 97.25,-44.02 29.34,-14.75 55.35,-28.94 76.26,-42.39 10.7,-6.33 19.77,-13.02 27.89,-18.61 8.2,-5.5 14.92,-10.71 20.29,-15.12 5.02,-4.09 9.14,-7.42 12.43,-10.08 2.79,-2.36 4.21,-3.65 4.09,-3.79" /></g></g></svg>